M48
;GenerationSoftware,Autodesk,EAGLE,9.6.2*%
;CreationDate,2023-03-11T08:20:46Z*%
FMAT,2
ICI,OFF
METRIC,TZ,000.000
T3C0.350
T2C1.016
T1C1.905
%
G90
M71
T1
X30480Y43180
X30480Y56134
T2
X25400Y45720
X22860Y45720
X25400Y48260
X22860Y48260
X25400Y50800
X22860Y50800
X25400Y53340
X22860Y53340
T3
X7620Y53645
X6553Y56083
X20574Y77419
X23165Y66751
X21184Y64770
X10668Y54254
X8687Y60198
X18136Y76200
X28651Y78029
X20574Y74828
X6553Y46787
X19964Y60198
X15240Y45720
X23774Y73762
M30