G04 EAGLE Gerber RS-274X export*
G75*
%MOMM*%
%FSLAX34Y34*%
%LPD*%
%INTop Copper*%
%IPPOS*%
%AMOC8*
5,1,8,0,0,1.08239X$1,22.5*%
G01*
%ADD10R,0.990000X0.690000*%
%ADD11R,2.032000X0.660400*%
%ADD12R,0.690000X0.990000*%
%ADD13C,2.857500*%
%ADD14C,1.879600*%
%ADD15C,0.152400*%
%ADD16C,0.756400*%

G36*
X874531Y302265D02*
X874531Y302265D01*
X874560Y302263D01*
X874652Y302285D01*
X874744Y302300D01*
X874770Y302314D01*
X874799Y302321D01*
X874879Y302372D01*
X874962Y302416D01*
X874982Y302437D01*
X875007Y302453D01*
X875066Y302526D01*
X875131Y302594D01*
X875143Y302621D01*
X875162Y302644D01*
X875195Y302732D01*
X875235Y302817D01*
X875238Y302846D01*
X875248Y302874D01*
X875263Y303041D01*
X863109Y789097D01*
X863107Y789107D01*
X863108Y789117D01*
X863084Y789228D01*
X863063Y789339D01*
X863058Y789348D01*
X863056Y789358D01*
X862998Y789455D01*
X862942Y789553D01*
X862935Y789560D01*
X862929Y789569D01*
X862844Y789642D01*
X862760Y789718D01*
X862750Y789722D01*
X862743Y789729D01*
X862638Y789771D01*
X862534Y789816D01*
X862524Y789817D01*
X862514Y789821D01*
X862348Y789839D01*
X10922Y789839D01*
X10902Y789836D01*
X10883Y789838D01*
X10781Y789816D01*
X10679Y789800D01*
X10662Y789790D01*
X10642Y789786D01*
X10553Y789733D01*
X10462Y789684D01*
X10448Y789670D01*
X10431Y789660D01*
X10364Y789581D01*
X10292Y789506D01*
X10284Y789488D01*
X10271Y789473D01*
X10232Y789377D01*
X10189Y789283D01*
X10187Y789263D01*
X10179Y789245D01*
X10161Y789078D01*
X10161Y303022D01*
X10164Y303002D01*
X10162Y302983D01*
X10184Y302881D01*
X10200Y302779D01*
X10210Y302762D01*
X10214Y302742D01*
X10267Y302653D01*
X10316Y302562D01*
X10330Y302548D01*
X10340Y302531D01*
X10419Y302464D01*
X10494Y302392D01*
X10512Y302384D01*
X10527Y302371D01*
X10623Y302332D01*
X10717Y302289D01*
X10737Y302287D01*
X10755Y302279D01*
X10922Y302261D01*
X874502Y302261D01*
X874531Y302265D01*
G37*
%LPC*%
G36*
X70818Y442725D02*
X70818Y442725D01*
X69925Y443618D01*
X69925Y451782D01*
X70055Y451912D01*
X70067Y451928D01*
X70083Y451940D01*
X70139Y452028D01*
X70199Y452111D01*
X70205Y452130D01*
X70216Y452147D01*
X70241Y452248D01*
X70271Y452346D01*
X70271Y452366D01*
X70276Y452386D01*
X70268Y452489D01*
X70265Y452592D01*
X70258Y452611D01*
X70257Y452631D01*
X70216Y452726D01*
X70181Y452823D01*
X70168Y452839D01*
X70160Y452857D01*
X70055Y452988D01*
X69925Y453118D01*
X69925Y461282D01*
X70055Y461412D01*
X70067Y461428D01*
X70083Y461440D01*
X70139Y461528D01*
X70199Y461611D01*
X70205Y461630D01*
X70216Y461647D01*
X70241Y461748D01*
X70271Y461846D01*
X70271Y461866D01*
X70276Y461886D01*
X70268Y461989D01*
X70265Y462092D01*
X70258Y462111D01*
X70257Y462131D01*
X70216Y462226D01*
X70181Y462323D01*
X70168Y462339D01*
X70160Y462357D01*
X70055Y462488D01*
X69925Y462618D01*
X69925Y462919D01*
X69914Y462989D01*
X69912Y463061D01*
X69894Y463110D01*
X69886Y463161D01*
X69852Y463225D01*
X69827Y463292D01*
X69795Y463333D01*
X69770Y463379D01*
X69718Y463428D01*
X69674Y463484D01*
X69630Y463512D01*
X69592Y463548D01*
X69527Y463578D01*
X69467Y463617D01*
X69416Y463630D01*
X69369Y463652D01*
X69298Y463660D01*
X69228Y463677D01*
X69176Y463673D01*
X69125Y463679D01*
X69054Y463664D01*
X68983Y463658D01*
X68935Y463638D01*
X68884Y463627D01*
X68823Y463590D01*
X68757Y463562D01*
X68701Y463517D01*
X68673Y463500D01*
X68658Y463483D01*
X68626Y463457D01*
X67730Y462561D01*
X63334Y462561D01*
X60537Y465358D01*
X60463Y465411D01*
X60393Y465471D01*
X60363Y465483D01*
X60337Y465502D01*
X60250Y465529D01*
X60165Y465563D01*
X60124Y465567D01*
X60102Y465574D01*
X60070Y465573D01*
X59999Y465581D01*
X57736Y465581D01*
X57716Y465578D01*
X57697Y465580D01*
X57595Y465558D01*
X57493Y465542D01*
X57476Y465532D01*
X57456Y465528D01*
X57367Y465475D01*
X57276Y465426D01*
X57262Y465412D01*
X57245Y465402D01*
X57178Y465323D01*
X57106Y465248D01*
X57098Y465230D01*
X57085Y465215D01*
X57046Y465119D01*
X57003Y465025D01*
X57001Y465005D01*
X56993Y464987D01*
X56975Y464820D01*
X56975Y462618D01*
X56082Y461725D01*
X44918Y461725D01*
X44025Y462618D01*
X44025Y470782D01*
X44918Y471675D01*
X56082Y471675D01*
X57001Y470755D01*
X57014Y470673D01*
X57024Y470656D01*
X57028Y470636D01*
X57081Y470547D01*
X57130Y470456D01*
X57144Y470442D01*
X57154Y470425D01*
X57233Y470358D01*
X57308Y470286D01*
X57326Y470278D01*
X57341Y470265D01*
X57437Y470226D01*
X57531Y470183D01*
X57551Y470181D01*
X57569Y470173D01*
X57736Y470155D01*
X59999Y470155D01*
X60089Y470169D01*
X60180Y470177D01*
X60209Y470189D01*
X60241Y470194D01*
X60322Y470237D01*
X60406Y470273D01*
X60438Y470299D01*
X60459Y470310D01*
X60481Y470333D01*
X60537Y470378D01*
X63334Y473175D01*
X67730Y473175D01*
X69486Y471419D01*
X69502Y471407D01*
X69515Y471392D01*
X69602Y471336D01*
X69686Y471275D01*
X69705Y471269D01*
X69722Y471259D01*
X69822Y471233D01*
X69921Y471203D01*
X69941Y471203D01*
X69960Y471199D01*
X70063Y471207D01*
X70167Y471209D01*
X70186Y471216D01*
X70205Y471218D01*
X70300Y471258D01*
X70398Y471294D01*
X70413Y471306D01*
X70432Y471314D01*
X70563Y471419D01*
X70818Y471675D01*
X73152Y471675D01*
X73172Y471678D01*
X73191Y471676D01*
X73293Y471698D01*
X73395Y471714D01*
X73412Y471724D01*
X73432Y471728D01*
X73521Y471781D01*
X73612Y471830D01*
X73626Y471844D01*
X73643Y471854D01*
X73710Y471933D01*
X73782Y472008D01*
X73790Y472026D01*
X73803Y472041D01*
X73842Y472137D01*
X73885Y472231D01*
X73887Y472251D01*
X73895Y472269D01*
X73913Y472436D01*
X73913Y530915D01*
X73899Y531005D01*
X73891Y531096D01*
X73879Y531125D01*
X73874Y531157D01*
X73831Y531238D01*
X73795Y531322D01*
X73769Y531354D01*
X73758Y531375D01*
X73735Y531397D01*
X73690Y531453D01*
X70893Y534250D01*
X70893Y538646D01*
X74002Y541755D01*
X78398Y541755D01*
X81507Y538646D01*
X81507Y534250D01*
X78710Y531453D01*
X78657Y531379D01*
X78597Y531309D01*
X78585Y531279D01*
X78566Y531253D01*
X78539Y531166D01*
X78505Y531081D01*
X78501Y531040D01*
X78494Y531018D01*
X78495Y530986D01*
X78487Y530915D01*
X78487Y472436D01*
X78490Y472416D01*
X78488Y472397D01*
X78510Y472295D01*
X78526Y472193D01*
X78536Y472176D01*
X78540Y472156D01*
X78593Y472067D01*
X78642Y471976D01*
X78656Y471962D01*
X78666Y471945D01*
X78745Y471878D01*
X78820Y471806D01*
X78838Y471798D01*
X78853Y471785D01*
X78949Y471746D01*
X79043Y471703D01*
X79063Y471701D01*
X79081Y471693D01*
X79248Y471675D01*
X81982Y471675D01*
X82875Y470782D01*
X82875Y462618D01*
X82745Y462488D01*
X82733Y462472D01*
X82717Y462460D01*
X82661Y462372D01*
X82601Y462289D01*
X82595Y462270D01*
X82584Y462253D01*
X82559Y462152D01*
X82529Y462053D01*
X82529Y462033D01*
X82524Y462014D01*
X82532Y461911D01*
X82535Y461808D01*
X82542Y461789D01*
X82543Y461769D01*
X82584Y461674D01*
X82619Y461577D01*
X82632Y461561D01*
X82640Y461543D01*
X82745Y461412D01*
X82875Y461282D01*
X82875Y460248D01*
X82878Y460228D01*
X82876Y460209D01*
X82898Y460107D01*
X82914Y460005D01*
X82924Y459988D01*
X82928Y459968D01*
X82981Y459879D01*
X83030Y459788D01*
X83044Y459774D01*
X83054Y459757D01*
X83133Y459690D01*
X83208Y459618D01*
X83226Y459610D01*
X83241Y459597D01*
X83337Y459558D01*
X83431Y459515D01*
X83451Y459513D01*
X83469Y459505D01*
X83636Y459487D01*
X146867Y459487D01*
X146957Y459501D01*
X147048Y459509D01*
X147077Y459521D01*
X147109Y459526D01*
X147190Y459569D01*
X147274Y459605D01*
X147306Y459631D01*
X147327Y459642D01*
X147349Y459665D01*
X147405Y459710D01*
X150202Y462507D01*
X154598Y462507D01*
X157707Y459398D01*
X157707Y455002D01*
X154598Y451893D01*
X150202Y451893D01*
X147405Y454690D01*
X147331Y454743D01*
X147261Y454803D01*
X147231Y454815D01*
X147205Y454834D01*
X147118Y454861D01*
X147033Y454895D01*
X146992Y454899D01*
X146970Y454906D01*
X146938Y454905D01*
X146867Y454913D01*
X83636Y454913D01*
X83616Y454910D01*
X83597Y454912D01*
X83495Y454890D01*
X83393Y454874D01*
X83376Y454864D01*
X83356Y454860D01*
X83267Y454807D01*
X83176Y454758D01*
X83162Y454744D01*
X83145Y454734D01*
X83078Y454655D01*
X83006Y454580D01*
X82998Y454562D01*
X82985Y454547D01*
X82946Y454451D01*
X82903Y454357D01*
X82901Y454337D01*
X82893Y454319D01*
X82875Y454152D01*
X82875Y453118D01*
X82745Y452988D01*
X82733Y452972D01*
X82717Y452960D01*
X82661Y452872D01*
X82601Y452789D01*
X82595Y452770D01*
X82584Y452753D01*
X82559Y452652D01*
X82529Y452553D01*
X82529Y452533D01*
X82524Y452514D01*
X82532Y452411D01*
X82535Y452308D01*
X82542Y452289D01*
X82543Y452269D01*
X82584Y452174D01*
X82619Y452077D01*
X82632Y452061D01*
X82640Y452043D01*
X82745Y451912D01*
X82875Y451782D01*
X82875Y451104D01*
X82878Y451084D01*
X82876Y451065D01*
X82898Y450963D01*
X82914Y450861D01*
X82924Y450844D01*
X82928Y450824D01*
X82981Y450735D01*
X83030Y450644D01*
X83044Y450630D01*
X83054Y450613D01*
X83133Y450546D01*
X83208Y450474D01*
X83226Y450466D01*
X83241Y450453D01*
X83337Y450414D01*
X83431Y450371D01*
X83451Y450369D01*
X83469Y450361D01*
X83636Y450343D01*
X193809Y450343D01*
X193900Y450357D01*
X193990Y450365D01*
X194020Y450377D01*
X194052Y450382D01*
X194133Y450425D01*
X194217Y450461D01*
X194249Y450487D01*
X194270Y450498D01*
X194292Y450521D01*
X194348Y450566D01*
X219231Y475449D01*
X219298Y475543D01*
X219369Y475637D01*
X219371Y475643D01*
X219374Y475648D01*
X219408Y475759D01*
X219445Y475871D01*
X219445Y475878D01*
X219447Y475884D01*
X219444Y476000D01*
X219443Y476117D01*
X219440Y476124D01*
X219440Y476129D01*
X219434Y476147D01*
X219396Y476278D01*
X217677Y480427D01*
X217677Y484773D01*
X219340Y488787D01*
X222413Y491860D01*
X226427Y493523D01*
X230773Y493523D01*
X233844Y492251D01*
X233958Y492224D01*
X234071Y492195D01*
X234077Y492196D01*
X234084Y492194D01*
X234200Y492205D01*
X234316Y492214D01*
X234322Y492217D01*
X234328Y492217D01*
X234436Y492265D01*
X234543Y492311D01*
X234549Y492315D01*
X234553Y492317D01*
X234567Y492330D01*
X234674Y492416D01*
X238282Y496024D01*
X238335Y496098D01*
X238395Y496168D01*
X238407Y496198D01*
X238426Y496224D01*
X238453Y496311D01*
X238487Y496396D01*
X238491Y496437D01*
X238498Y496459D01*
X238497Y496491D01*
X238505Y496563D01*
X238505Y500620D01*
X238494Y500691D01*
X238492Y500763D01*
X238474Y500812D01*
X238466Y500863D01*
X238432Y500926D01*
X238407Y500994D01*
X238375Y501034D01*
X238350Y501081D01*
X238298Y501130D01*
X238254Y501186D01*
X238210Y501214D01*
X238172Y501250D01*
X238107Y501280D01*
X238047Y501319D01*
X237996Y501332D01*
X237949Y501354D01*
X237878Y501361D01*
X237808Y501379D01*
X237756Y501375D01*
X237705Y501381D01*
X237634Y501365D01*
X237563Y501360D01*
X237515Y501339D01*
X237464Y501328D01*
X237403Y501292D01*
X237337Y501263D01*
X237281Y501219D01*
X237253Y501202D01*
X237238Y501184D01*
X237206Y501159D01*
X234787Y498740D01*
X230773Y497077D01*
X226427Y497077D01*
X222413Y498740D01*
X219340Y501813D01*
X217677Y505827D01*
X217677Y510173D01*
X219396Y514322D01*
X219422Y514435D01*
X219451Y514549D01*
X219451Y514555D01*
X219452Y514561D01*
X219441Y514678D01*
X219432Y514794D01*
X219430Y514800D01*
X219429Y514806D01*
X219381Y514914D01*
X219336Y515020D01*
X219331Y515026D01*
X219329Y515031D01*
X219316Y515045D01*
X219231Y515151D01*
X188252Y546130D01*
X186466Y547916D01*
X179108Y555274D01*
X179034Y555327D01*
X178964Y555387D01*
X178934Y555399D01*
X178908Y555418D01*
X178821Y555445D01*
X178736Y555479D01*
X178695Y555483D01*
X178673Y555490D01*
X178641Y555489D01*
X178569Y555497D01*
X83636Y555497D01*
X83616Y555494D01*
X83597Y555496D01*
X83495Y555474D01*
X83393Y555458D01*
X83376Y555448D01*
X83356Y555444D01*
X83267Y555391D01*
X83176Y555342D01*
X83162Y555328D01*
X83145Y555318D01*
X83078Y555239D01*
X83006Y555164D01*
X82998Y555146D01*
X82985Y555131D01*
X82946Y555035D01*
X82903Y554941D01*
X82901Y554921D01*
X82893Y554903D01*
X82875Y554736D01*
X82875Y554718D01*
X82745Y554588D01*
X82733Y554572D01*
X82717Y554560D01*
X82661Y554472D01*
X82601Y554389D01*
X82595Y554370D01*
X82584Y554353D01*
X82559Y554252D01*
X82529Y554153D01*
X82529Y554133D01*
X82524Y554114D01*
X82532Y554011D01*
X82535Y553908D01*
X82542Y553889D01*
X82543Y553869D01*
X82584Y553774D01*
X82619Y553677D01*
X82632Y553661D01*
X82640Y553643D01*
X82745Y553512D01*
X82875Y553382D01*
X82875Y545218D01*
X81982Y544325D01*
X70818Y544325D01*
X69925Y545218D01*
X69925Y547116D01*
X69922Y547136D01*
X69924Y547155D01*
X69902Y547257D01*
X69886Y547359D01*
X69876Y547376D01*
X69872Y547396D01*
X69819Y547485D01*
X69770Y547576D01*
X69756Y547590D01*
X69746Y547607D01*
X69667Y547674D01*
X69592Y547746D01*
X69574Y547754D01*
X69559Y547767D01*
X69463Y547806D01*
X69369Y547849D01*
X69349Y547851D01*
X69331Y547859D01*
X69164Y547877D01*
X61537Y547877D01*
X58814Y550600D01*
X58740Y550653D01*
X58670Y550713D01*
X58640Y550725D01*
X58614Y550744D01*
X58527Y550771D01*
X58442Y550805D01*
X58401Y550809D01*
X58379Y550816D01*
X58347Y550815D01*
X58276Y550823D01*
X52023Y550823D01*
X52023Y555291D01*
X52286Y555291D01*
X52356Y555302D01*
X52428Y555304D01*
X52477Y555322D01*
X52528Y555330D01*
X52592Y555364D01*
X52659Y555389D01*
X52700Y555421D01*
X52746Y555446D01*
X52795Y555498D01*
X52851Y555542D01*
X52879Y555586D01*
X52915Y555624D01*
X52945Y555689D01*
X52984Y555749D01*
X52997Y555800D01*
X53019Y555847D01*
X53027Y555918D01*
X53044Y555988D01*
X53040Y556040D01*
X53046Y556091D01*
X53031Y556162D01*
X53025Y556233D01*
X53005Y556281D01*
X52994Y556332D01*
X52957Y556393D01*
X52929Y556459D01*
X52884Y556515D01*
X52867Y556543D01*
X52850Y556558D01*
X52824Y556590D01*
X49568Y559846D01*
X49494Y559899D01*
X49424Y559959D01*
X49394Y559971D01*
X49368Y559990D01*
X49281Y560017D01*
X49196Y560051D01*
X49155Y560055D01*
X49133Y560062D01*
X49101Y560061D01*
X49029Y560069D01*
X43249Y560069D01*
X34289Y569029D01*
X34289Y752279D01*
X47236Y765226D01*
X47278Y765284D01*
X47327Y765336D01*
X47349Y765383D01*
X47379Y765425D01*
X47400Y765494D01*
X47431Y765559D01*
X47436Y765611D01*
X47452Y765661D01*
X47450Y765732D01*
X47458Y765803D01*
X47447Y765854D01*
X47445Y765906D01*
X47421Y765974D01*
X47406Y766044D01*
X47379Y766089D01*
X47361Y766137D01*
X47316Y766193D01*
X47279Y766255D01*
X47240Y766289D01*
X47207Y766329D01*
X47147Y766368D01*
X47092Y766415D01*
X47044Y766434D01*
X47000Y766462D01*
X46931Y766480D01*
X46864Y766507D01*
X46793Y766515D01*
X46762Y766523D01*
X46738Y766521D01*
X46698Y766525D01*
X44918Y766525D01*
X44025Y767418D01*
X44025Y775582D01*
X44918Y776475D01*
X56082Y776475D01*
X56975Y775582D01*
X56975Y769182D01*
X56986Y769112D01*
X56988Y769040D01*
X57006Y768991D01*
X57014Y768940D01*
X57048Y768876D01*
X57073Y768809D01*
X57105Y768768D01*
X57130Y768722D01*
X57182Y768673D01*
X57226Y768617D01*
X57270Y768589D01*
X57308Y768553D01*
X57373Y768523D01*
X57433Y768484D01*
X57484Y768471D01*
X57531Y768449D01*
X57602Y768441D01*
X57672Y768424D01*
X57724Y768428D01*
X57775Y768422D01*
X57846Y768437D01*
X57917Y768443D01*
X57965Y768463D01*
X58016Y768474D01*
X58077Y768511D01*
X58143Y768539D01*
X58199Y768584D01*
X58227Y768601D01*
X58242Y768618D01*
X58274Y768644D01*
X73690Y784060D01*
X75253Y785623D01*
X188399Y785623D01*
X199134Y774888D01*
X199192Y774846D01*
X199244Y774797D01*
X199291Y774775D01*
X199333Y774745D01*
X199402Y774724D01*
X199467Y774693D01*
X199519Y774688D01*
X199569Y774672D01*
X199640Y774674D01*
X199711Y774666D01*
X199762Y774677D01*
X199814Y774679D01*
X199882Y774703D01*
X199952Y774718D01*
X199997Y774745D01*
X200045Y774763D01*
X200101Y774808D01*
X200163Y774845D01*
X200197Y774884D01*
X200237Y774917D01*
X200276Y774977D01*
X200323Y775032D01*
X200342Y775080D01*
X200370Y775124D01*
X200388Y775193D01*
X200415Y775260D01*
X200423Y775331D01*
X200431Y775362D01*
X200429Y775386D01*
X200433Y775426D01*
X200433Y776390D01*
X203542Y779499D01*
X207938Y779499D01*
X208638Y778799D01*
X208654Y778787D01*
X208667Y778772D01*
X208754Y778716D01*
X208838Y778655D01*
X208857Y778649D01*
X208874Y778639D01*
X208974Y778613D01*
X209073Y778583D01*
X209093Y778583D01*
X209112Y778579D01*
X209215Y778587D01*
X209319Y778589D01*
X209337Y778596D01*
X209357Y778598D01*
X209452Y778638D01*
X209550Y778674D01*
X209565Y778686D01*
X209584Y778694D01*
X209715Y778799D01*
X210442Y779527D01*
X232026Y779527D01*
X232919Y778634D01*
X232919Y777240D01*
X232922Y777220D01*
X232920Y777201D01*
X232942Y777099D01*
X232958Y776997D01*
X232968Y776980D01*
X232972Y776960D01*
X233025Y776871D01*
X233074Y776780D01*
X233088Y776766D01*
X233098Y776749D01*
X233177Y776682D01*
X233252Y776610D01*
X233270Y776602D01*
X233285Y776589D01*
X233381Y776550D01*
X233475Y776507D01*
X233495Y776505D01*
X233513Y776497D01*
X233680Y776479D01*
X263075Y776479D01*
X273520Y766034D01*
X273594Y765981D01*
X273664Y765921D01*
X273694Y765909D01*
X273720Y765890D01*
X273807Y765863D01*
X273892Y765829D01*
X273933Y765825D01*
X273955Y765818D01*
X273987Y765819D01*
X274059Y765811D01*
X276864Y765811D01*
X276884Y765814D01*
X276903Y765812D01*
X277005Y765834D01*
X277107Y765850D01*
X277124Y765860D01*
X277144Y765864D01*
X277233Y765917D01*
X277324Y765966D01*
X277338Y765980D01*
X277355Y765990D01*
X277422Y766069D01*
X277494Y766144D01*
X277502Y766162D01*
X277515Y766177D01*
X277554Y766273D01*
X277597Y766367D01*
X277599Y766387D01*
X277607Y766405D01*
X277625Y766572D01*
X277625Y767782D01*
X278518Y768675D01*
X286682Y768675D01*
X286812Y768545D01*
X286828Y768533D01*
X286840Y768517D01*
X286928Y768461D01*
X287011Y768401D01*
X287030Y768395D01*
X287047Y768384D01*
X287148Y768359D01*
X287247Y768329D01*
X287267Y768329D01*
X287286Y768324D01*
X287389Y768332D01*
X287492Y768335D01*
X287511Y768342D01*
X287531Y768343D01*
X287626Y768384D01*
X287723Y768419D01*
X287739Y768432D01*
X287757Y768440D01*
X287888Y768545D01*
X288018Y768675D01*
X293054Y768675D01*
X293124Y768686D01*
X293196Y768688D01*
X293245Y768706D01*
X293296Y768714D01*
X293360Y768748D01*
X293427Y768773D01*
X293468Y768805D01*
X293514Y768830D01*
X293563Y768882D01*
X293619Y768926D01*
X293647Y768970D01*
X293683Y769008D01*
X293713Y769073D01*
X293752Y769133D01*
X293765Y769184D01*
X293787Y769231D01*
X293795Y769302D01*
X293812Y769372D01*
X293808Y769424D01*
X293814Y769475D01*
X293799Y769546D01*
X293793Y769617D01*
X293773Y769665D01*
X293762Y769716D01*
X293725Y769777D01*
X293697Y769843D01*
X293652Y769899D01*
X293635Y769927D01*
X293618Y769942D01*
X293592Y769974D01*
X288808Y774758D01*
X288734Y774811D01*
X288664Y774871D01*
X288634Y774883D01*
X288608Y774902D01*
X288521Y774929D01*
X288436Y774963D01*
X288395Y774967D01*
X288373Y774974D01*
X288341Y774973D01*
X288269Y774981D01*
X284314Y774981D01*
X281205Y778090D01*
X281205Y782486D01*
X284314Y785595D01*
X288710Y785595D01*
X291819Y782486D01*
X291819Y778531D01*
X291833Y778440D01*
X291841Y778350D01*
X291853Y778320D01*
X291858Y778288D01*
X291901Y778207D01*
X291937Y778123D01*
X291963Y778091D01*
X291974Y778070D01*
X291997Y778048D01*
X292042Y777992D01*
X301136Y768898D01*
X301210Y768845D01*
X301280Y768785D01*
X301310Y768773D01*
X301336Y768754D01*
X301423Y768727D01*
X301508Y768693D01*
X301549Y768689D01*
X301571Y768682D01*
X301603Y768683D01*
X301675Y768675D01*
X305682Y768675D01*
X306575Y767782D01*
X306575Y756618D01*
X305682Y755725D01*
X304800Y755725D01*
X304780Y755722D01*
X304761Y755724D01*
X304659Y755702D01*
X304557Y755686D01*
X304540Y755676D01*
X304520Y755672D01*
X304431Y755619D01*
X304340Y755570D01*
X304326Y755556D01*
X304309Y755546D01*
X304242Y755467D01*
X304170Y755392D01*
X304162Y755374D01*
X304149Y755359D01*
X304110Y755263D01*
X304067Y755169D01*
X304065Y755149D01*
X304057Y755131D01*
X304039Y754964D01*
X304039Y754119D01*
X304053Y754028D01*
X304061Y753938D01*
X304073Y753908D01*
X304078Y753876D01*
X304121Y753795D01*
X304157Y753711D01*
X304183Y753679D01*
X304194Y753658D01*
X304217Y753636D01*
X304262Y753580D01*
X326899Y730943D01*
X326899Y550741D01*
X264113Y487955D01*
X264045Y487860D01*
X263975Y487767D01*
X263973Y487761D01*
X263970Y487755D01*
X263935Y487644D01*
X263899Y487533D01*
X263899Y487526D01*
X263897Y487520D01*
X263900Y487404D01*
X263901Y487287D01*
X263903Y487279D01*
X263904Y487275D01*
X263910Y487257D01*
X263948Y487126D01*
X264923Y484773D01*
X264923Y480427D01*
X263260Y476413D01*
X260187Y473340D01*
X256173Y471677D01*
X251827Y471677D01*
X247813Y473340D01*
X244740Y476413D01*
X243077Y480427D01*
X243077Y484773D01*
X244740Y488787D01*
X247813Y491860D01*
X251827Y493523D01*
X256173Y493523D01*
X260187Y491860D01*
X260330Y491717D01*
X260346Y491705D01*
X260359Y491690D01*
X260446Y491634D01*
X260530Y491573D01*
X260549Y491567D01*
X260566Y491557D01*
X260666Y491531D01*
X260765Y491501D01*
X260785Y491501D01*
X260804Y491497D01*
X260907Y491505D01*
X261011Y491507D01*
X261030Y491514D01*
X261050Y491516D01*
X261145Y491556D01*
X261242Y491592D01*
X261258Y491604D01*
X261276Y491612D01*
X261407Y491717D01*
X275120Y505430D01*
X275162Y505488D01*
X275211Y505540D01*
X275233Y505587D01*
X275263Y505629D01*
X275284Y505698D01*
X275315Y505763D01*
X275320Y505815D01*
X275336Y505865D01*
X275334Y505936D01*
X275342Y506007D01*
X275331Y506058D01*
X275329Y506110D01*
X275305Y506178D01*
X275290Y506248D01*
X275263Y506292D01*
X275245Y506341D01*
X275200Y506397D01*
X275163Y506459D01*
X275124Y506493D01*
X275091Y506533D01*
X275031Y506572D01*
X274976Y506619D01*
X274928Y506638D01*
X274884Y506666D01*
X274815Y506684D01*
X274748Y506711D01*
X274677Y506719D01*
X274646Y506727D01*
X274622Y506725D01*
X274582Y506729D01*
X265684Y506729D01*
X265664Y506726D01*
X265645Y506728D01*
X265543Y506706D01*
X265441Y506690D01*
X265424Y506680D01*
X265404Y506676D01*
X265315Y506623D01*
X265224Y506574D01*
X265210Y506560D01*
X265193Y506550D01*
X265126Y506471D01*
X265054Y506396D01*
X265046Y506378D01*
X265033Y506363D01*
X264994Y506267D01*
X264951Y506173D01*
X264949Y506153D01*
X264941Y506135D01*
X264923Y505968D01*
X264923Y505827D01*
X263260Y501813D01*
X260187Y498740D01*
X256173Y497077D01*
X251827Y497077D01*
X247813Y498740D01*
X244740Y501813D01*
X244543Y502288D01*
X244492Y502371D01*
X244446Y502457D01*
X244427Y502475D01*
X244414Y502497D01*
X244339Y502559D01*
X244268Y502626D01*
X244244Y502637D01*
X244224Y502654D01*
X244133Y502689D01*
X244045Y502730D01*
X244019Y502733D01*
X243995Y502742D01*
X243897Y502746D01*
X243801Y502757D01*
X243775Y502751D01*
X243749Y502753D01*
X243655Y502725D01*
X243560Y502705D01*
X243538Y502691D01*
X243513Y502684D01*
X243433Y502629D01*
X243349Y502579D01*
X243332Y502559D01*
X243311Y502544D01*
X243253Y502466D01*
X243189Y502392D01*
X243179Y502367D01*
X243164Y502346D01*
X243134Y502254D01*
X243097Y502164D01*
X243094Y502131D01*
X243088Y502113D01*
X243088Y502080D01*
X243079Y501997D01*
X243079Y494353D01*
X238118Y489392D01*
X238050Y489297D01*
X237980Y489203D01*
X237978Y489197D01*
X237974Y489192D01*
X237940Y489081D01*
X237904Y488970D01*
X237904Y488963D01*
X237902Y488957D01*
X237905Y488840D01*
X237906Y488724D01*
X237908Y488716D01*
X237908Y488711D01*
X237915Y488694D01*
X237953Y488562D01*
X239523Y484773D01*
X239523Y480427D01*
X237860Y476413D01*
X234787Y473340D01*
X230773Y471677D01*
X226427Y471677D01*
X223715Y472801D01*
X223602Y472827D01*
X223488Y472856D01*
X223482Y472855D01*
X223476Y472857D01*
X223359Y472846D01*
X223243Y472837D01*
X223237Y472834D01*
X223231Y472834D01*
X223123Y472786D01*
X223017Y472740D01*
X223011Y472736D01*
X223006Y472734D01*
X222992Y472721D01*
X222886Y472636D01*
X196019Y445769D01*
X83636Y445769D01*
X83616Y445766D01*
X83597Y445768D01*
X83495Y445746D01*
X83393Y445730D01*
X83376Y445720D01*
X83356Y445716D01*
X83267Y445663D01*
X83176Y445614D01*
X83162Y445600D01*
X83145Y445590D01*
X83078Y445511D01*
X83006Y445436D01*
X82998Y445418D01*
X82985Y445403D01*
X82946Y445307D01*
X82903Y445213D01*
X82901Y445193D01*
X82893Y445175D01*
X82875Y445008D01*
X82875Y443618D01*
X81982Y442725D01*
X70818Y442725D01*
G37*
%LPD*%
G36*
X276196Y535701D02*
X276196Y535701D01*
X276286Y535709D01*
X276316Y535721D01*
X276348Y535726D01*
X276429Y535769D01*
X276513Y535805D01*
X276545Y535831D01*
X276566Y535842D01*
X276588Y535865D01*
X276644Y535910D01*
X291718Y550984D01*
X291729Y551000D01*
X291745Y551012D01*
X291801Y551100D01*
X291861Y551183D01*
X291867Y551202D01*
X291878Y551219D01*
X291903Y551320D01*
X291934Y551419D01*
X291933Y551439D01*
X291938Y551458D01*
X291930Y551561D01*
X291927Y551664D01*
X291921Y551683D01*
X291919Y551703D01*
X291879Y551798D01*
X291843Y551895D01*
X291830Y551911D01*
X291823Y551929D01*
X291718Y552060D01*
X291395Y552383D01*
X288988Y558195D01*
X288988Y564485D01*
X291395Y570297D01*
X295843Y574745D01*
X301655Y577152D01*
X307945Y577152D01*
X313757Y574745D01*
X317978Y570524D01*
X318036Y570482D01*
X318088Y570433D01*
X318135Y570411D01*
X318177Y570381D01*
X318246Y570360D01*
X318311Y570329D01*
X318363Y570324D01*
X318413Y570308D01*
X318484Y570310D01*
X318555Y570302D01*
X318606Y570313D01*
X318658Y570315D01*
X318726Y570339D01*
X318796Y570354D01*
X318841Y570381D01*
X318889Y570399D01*
X318945Y570444D01*
X319007Y570481D01*
X319041Y570520D01*
X319081Y570553D01*
X319120Y570613D01*
X319167Y570668D01*
X319186Y570716D01*
X319214Y570760D01*
X319232Y570829D01*
X319259Y570896D01*
X319267Y570967D01*
X319275Y570998D01*
X319273Y571021D01*
X319277Y571062D01*
X319277Y727209D01*
X319263Y727300D01*
X319255Y727390D01*
X319243Y727420D01*
X319238Y727452D01*
X319195Y727533D01*
X319159Y727617D01*
X319133Y727649D01*
X319122Y727670D01*
X319099Y727692D01*
X319054Y727748D01*
X308890Y737912D01*
X308832Y737954D01*
X308780Y738003D01*
X308733Y738025D01*
X308691Y738055D01*
X308622Y738076D01*
X308557Y738107D01*
X308505Y738112D01*
X308455Y738128D01*
X308384Y738126D01*
X308313Y738134D01*
X308262Y738123D01*
X308210Y738121D01*
X308142Y738097D01*
X308072Y738082D01*
X308027Y738055D01*
X307979Y738037D01*
X307923Y737992D01*
X307861Y737955D01*
X307827Y737916D01*
X307787Y737883D01*
X307748Y737823D01*
X303123Y737823D01*
X303123Y743364D01*
X303108Y743454D01*
X303101Y743545D01*
X303089Y743574D01*
X303083Y743606D01*
X303041Y743687D01*
X303005Y743771D01*
X302979Y743803D01*
X302968Y743824D01*
X302945Y743846D01*
X302900Y743902D01*
X291300Y755502D01*
X291226Y755555D01*
X291156Y755615D01*
X291126Y755627D01*
X291100Y755646D01*
X291013Y755673D01*
X290928Y755707D01*
X290887Y755711D01*
X290865Y755718D01*
X290833Y755717D01*
X290761Y755725D01*
X288018Y755725D01*
X287888Y755855D01*
X287872Y755867D01*
X287860Y755883D01*
X287772Y755939D01*
X287689Y755999D01*
X287670Y756005D01*
X287653Y756016D01*
X287552Y756041D01*
X287454Y756071D01*
X287434Y756071D01*
X287414Y756076D01*
X287311Y756068D01*
X287208Y756065D01*
X287189Y756058D01*
X287169Y756057D01*
X287074Y756016D01*
X286977Y755981D01*
X286961Y755968D01*
X286943Y755960D01*
X286812Y755855D01*
X286682Y755725D01*
X281094Y755725D01*
X281024Y755714D01*
X280952Y755712D01*
X280903Y755694D01*
X280852Y755686D01*
X280788Y755652D01*
X280721Y755627D01*
X280680Y755595D01*
X280634Y755570D01*
X280585Y755518D01*
X280529Y755474D01*
X280501Y755430D01*
X280465Y755392D01*
X280435Y755327D01*
X280396Y755267D01*
X280383Y755216D01*
X280361Y755169D01*
X280353Y755098D01*
X280336Y755028D01*
X280340Y754976D01*
X280334Y754925D01*
X280349Y754854D01*
X280355Y754783D01*
X280375Y754735D01*
X280386Y754684D01*
X280423Y754623D01*
X280451Y754557D01*
X280496Y754501D01*
X280513Y754473D01*
X280530Y754458D01*
X280556Y754426D01*
X291847Y743135D01*
X291847Y730573D01*
X258503Y697229D01*
X233680Y697229D01*
X233660Y697226D01*
X233641Y697228D01*
X233539Y697206D01*
X233437Y697190D01*
X233420Y697180D01*
X233400Y697176D01*
X233311Y697123D01*
X233220Y697074D01*
X233206Y697060D01*
X233189Y697050D01*
X233122Y696971D01*
X233050Y696896D01*
X233042Y696878D01*
X233029Y696863D01*
X232990Y696767D01*
X232947Y696673D01*
X232945Y696653D01*
X232937Y696635D01*
X232919Y696468D01*
X232919Y694566D01*
X232026Y693673D01*
X211836Y693673D01*
X211816Y693670D01*
X211797Y693672D01*
X211695Y693650D01*
X211593Y693634D01*
X211576Y693624D01*
X211556Y693620D01*
X211467Y693567D01*
X211376Y693518D01*
X211362Y693504D01*
X211345Y693494D01*
X211278Y693415D01*
X211206Y693340D01*
X211198Y693322D01*
X211185Y693307D01*
X211146Y693211D01*
X211103Y693117D01*
X211101Y693097D01*
X211093Y693079D01*
X211075Y692912D01*
X211075Y682491D01*
X211089Y682400D01*
X211097Y682310D01*
X211109Y682280D01*
X211114Y682248D01*
X211157Y682167D01*
X211193Y682083D01*
X211219Y682051D01*
X211230Y682030D01*
X211253Y682008D01*
X211298Y681952D01*
X249175Y644075D01*
X249175Y544363D01*
X249182Y544318D01*
X249180Y544272D01*
X249202Y544197D01*
X249214Y544121D01*
X249236Y544080D01*
X249249Y544036D01*
X249293Y543972D01*
X249330Y543903D01*
X249363Y543872D01*
X249389Y543834D01*
X249451Y543787D01*
X249508Y543734D01*
X249550Y543714D01*
X249586Y543687D01*
X249660Y543663D01*
X249731Y543630D01*
X249777Y543625D01*
X249820Y543611D01*
X249898Y543612D01*
X249975Y543603D01*
X250020Y543613D01*
X250066Y543613D01*
X250198Y543651D01*
X250216Y543655D01*
X250220Y543658D01*
X250227Y543660D01*
X251827Y544323D01*
X256173Y544323D01*
X260187Y542660D01*
X263260Y539587D01*
X264681Y536157D01*
X264742Y536057D01*
X264802Y535957D01*
X264807Y535953D01*
X264810Y535948D01*
X264900Y535873D01*
X264989Y535797D01*
X264995Y535795D01*
X265000Y535791D01*
X265108Y535749D01*
X265217Y535705D01*
X265225Y535704D01*
X265230Y535703D01*
X265248Y535702D01*
X265384Y535687D01*
X276105Y535687D01*
X276196Y535701D01*
G37*
G36*
X240812Y615878D02*
X240812Y615878D01*
X240831Y615876D01*
X240933Y615898D01*
X241035Y615914D01*
X241052Y615924D01*
X241072Y615928D01*
X241161Y615981D01*
X241252Y616030D01*
X241266Y616044D01*
X241283Y616054D01*
X241350Y616133D01*
X241422Y616208D01*
X241430Y616226D01*
X241443Y616241D01*
X241482Y616337D01*
X241525Y616431D01*
X241527Y616451D01*
X241535Y616469D01*
X241553Y616636D01*
X241553Y628064D01*
X241550Y628084D01*
X241552Y628103D01*
X241530Y628205D01*
X241514Y628307D01*
X241504Y628324D01*
X241500Y628344D01*
X241447Y628433D01*
X241398Y628524D01*
X241384Y628538D01*
X241374Y628555D01*
X241295Y628622D01*
X241220Y628694D01*
X241202Y628702D01*
X241187Y628715D01*
X241091Y628754D01*
X240997Y628797D01*
X240977Y628799D01*
X240959Y628807D01*
X240792Y628825D01*
X234018Y628825D01*
X233125Y629718D01*
X233125Y639626D01*
X233111Y639716D01*
X233103Y639807D01*
X233091Y639836D01*
X233086Y639868D01*
X233043Y639949D01*
X233007Y640033D01*
X232981Y640065D01*
X232970Y640086D01*
X232947Y640108D01*
X232902Y640164D01*
X173266Y699800D01*
X173192Y699853D01*
X173122Y699913D01*
X173092Y699925D01*
X173066Y699944D01*
X172979Y699971D01*
X172894Y700005D01*
X172853Y700009D01*
X172831Y700016D01*
X172799Y700015D01*
X172728Y700023D01*
X161289Y700023D01*
X161289Y704343D01*
X166886Y704343D01*
X166956Y704354D01*
X167028Y704356D01*
X167077Y704374D01*
X167128Y704382D01*
X167192Y704416D01*
X167259Y704441D01*
X167300Y704473D01*
X167346Y704498D01*
X167395Y704549D01*
X167451Y704594D01*
X167479Y704638D01*
X167515Y704676D01*
X167545Y704741D01*
X167584Y704801D01*
X167597Y704852D01*
X167619Y704899D01*
X167627Y704970D01*
X167644Y705040D01*
X167640Y705092D01*
X167646Y705143D01*
X167631Y705214D01*
X167625Y705285D01*
X167605Y705333D01*
X167594Y705384D01*
X167557Y705445D01*
X167529Y705511D01*
X167484Y705567D01*
X167467Y705595D01*
X167450Y705610D01*
X167424Y705642D01*
X166916Y706150D01*
X166842Y706203D01*
X166772Y706263D01*
X166742Y706275D01*
X166716Y706294D01*
X166629Y706321D01*
X166544Y706355D01*
X166503Y706359D01*
X166481Y706366D01*
X166449Y706365D01*
X166378Y706373D01*
X153662Y706373D01*
X153572Y706359D01*
X153481Y706351D01*
X153452Y706339D01*
X153420Y706334D01*
X153339Y706291D01*
X153255Y706255D01*
X153223Y706229D01*
X153202Y706218D01*
X153180Y706195D01*
X153124Y706150D01*
X152616Y705642D01*
X152574Y705584D01*
X152525Y705532D01*
X152503Y705485D01*
X152473Y705443D01*
X152452Y705374D01*
X152421Y705309D01*
X152416Y705257D01*
X152400Y705207D01*
X152402Y705136D01*
X152394Y705065D01*
X152405Y705014D01*
X152407Y704962D01*
X152431Y704894D01*
X152446Y704824D01*
X152473Y704780D01*
X152491Y704731D01*
X152536Y704675D01*
X152573Y704613D01*
X152612Y704579D01*
X152645Y704539D01*
X152705Y704500D01*
X152760Y704453D01*
X152808Y704434D01*
X152852Y704406D01*
X152921Y704388D01*
X152988Y704361D01*
X153059Y704353D01*
X153090Y704345D01*
X153114Y704347D01*
X153154Y704343D01*
X158243Y704343D01*
X158243Y700023D01*
X147312Y700023D01*
X147222Y700008D01*
X147131Y700001D01*
X147102Y699989D01*
X147070Y699983D01*
X146989Y699941D01*
X146905Y699905D01*
X146873Y699879D01*
X146852Y699868D01*
X146830Y699845D01*
X146774Y699800D01*
X83098Y636124D01*
X83045Y636050D01*
X82985Y635980D01*
X82973Y635950D01*
X82954Y635924D01*
X82927Y635837D01*
X82893Y635752D01*
X82889Y635711D01*
X82882Y635689D01*
X82883Y635657D01*
X82875Y635586D01*
X82875Y634118D01*
X81982Y633225D01*
X74410Y633225D01*
X74340Y633214D01*
X74268Y633212D01*
X74219Y633194D01*
X74168Y633186D01*
X74104Y633152D01*
X74037Y633127D01*
X73996Y633095D01*
X73950Y633070D01*
X73901Y633018D01*
X73845Y632974D01*
X73817Y632930D01*
X73781Y632892D01*
X73751Y632827D01*
X73712Y632767D01*
X73699Y632716D01*
X73677Y632669D01*
X73669Y632598D01*
X73652Y632528D01*
X73656Y632476D01*
X73650Y632425D01*
X73665Y632354D01*
X73671Y632283D01*
X73691Y632235D01*
X73702Y632184D01*
X73739Y632123D01*
X73767Y632057D01*
X73812Y632001D01*
X73829Y631973D01*
X73846Y631958D01*
X73872Y631926D01*
X86068Y619730D01*
X86142Y619677D01*
X86212Y619617D01*
X86242Y619605D01*
X86268Y619586D01*
X86355Y619559D01*
X86440Y619525D01*
X86481Y619521D01*
X86503Y619514D01*
X86535Y619515D01*
X86607Y619507D01*
X234119Y619507D01*
X237528Y616098D01*
X237602Y616045D01*
X237672Y615985D01*
X237702Y615973D01*
X237728Y615954D01*
X237815Y615927D01*
X237900Y615893D01*
X237941Y615889D01*
X237963Y615882D01*
X237995Y615883D01*
X238066Y615875D01*
X240792Y615875D01*
X240812Y615878D01*
G37*
G36*
X43354Y566849D02*
X43354Y566849D01*
X43406Y566851D01*
X43474Y566875D01*
X43544Y566890D01*
X43589Y566917D01*
X43637Y566935D01*
X43693Y566980D01*
X43755Y567017D01*
X43789Y567056D01*
X43829Y567089D01*
X43868Y567149D01*
X43915Y567204D01*
X43934Y567252D01*
X43962Y567296D01*
X43980Y567365D01*
X44007Y567432D01*
X44015Y567503D01*
X44023Y567534D01*
X44021Y567558D01*
X44025Y567598D01*
X44025Y572382D01*
X44918Y573275D01*
X56082Y573275D01*
X56975Y572382D01*
X56975Y571500D01*
X56978Y571480D01*
X56976Y571461D01*
X56998Y571359D01*
X57014Y571257D01*
X57024Y571240D01*
X57028Y571220D01*
X57081Y571131D01*
X57130Y571040D01*
X57144Y571026D01*
X57154Y571009D01*
X57233Y570942D01*
X57308Y570870D01*
X57326Y570862D01*
X57341Y570849D01*
X57437Y570810D01*
X57531Y570767D01*
X57551Y570765D01*
X57569Y570757D01*
X57736Y570739D01*
X62745Y570739D01*
X62836Y570753D01*
X62926Y570761D01*
X62956Y570773D01*
X62988Y570778D01*
X63069Y570821D01*
X63153Y570857D01*
X63185Y570883D01*
X63206Y570894D01*
X63228Y570917D01*
X63284Y570962D01*
X102685Y610363D01*
X213364Y610363D01*
X213384Y610366D01*
X213403Y610364D01*
X213505Y610386D01*
X213607Y610402D01*
X213624Y610412D01*
X213644Y610416D01*
X213733Y610469D01*
X213824Y610518D01*
X213838Y610532D01*
X213855Y610542D01*
X213922Y610621D01*
X213994Y610696D01*
X214002Y610714D01*
X214015Y610729D01*
X214054Y610825D01*
X214097Y610919D01*
X214099Y610939D01*
X214107Y610957D01*
X214125Y611124D01*
X214125Y614172D01*
X214122Y614192D01*
X214124Y614211D01*
X214102Y614313D01*
X214086Y614415D01*
X214076Y614432D01*
X214072Y614452D01*
X214019Y614541D01*
X213970Y614632D01*
X213956Y614646D01*
X213946Y614663D01*
X213867Y614730D01*
X213792Y614802D01*
X213774Y614810D01*
X213759Y614823D01*
X213663Y614862D01*
X213569Y614905D01*
X213549Y614907D01*
X213531Y614915D01*
X213364Y614933D01*
X84397Y614933D01*
X82834Y616496D01*
X59290Y640040D01*
X59232Y640082D01*
X59180Y640131D01*
X59159Y640141D01*
X59154Y640145D01*
X59130Y640155D01*
X59091Y640183D01*
X59022Y640204D01*
X58957Y640235D01*
X58905Y640240D01*
X58855Y640256D01*
X58784Y640254D01*
X58713Y640262D01*
X58662Y640251D01*
X58610Y640249D01*
X58542Y640225D01*
X58472Y640210D01*
X58427Y640183D01*
X58379Y640165D01*
X58323Y640120D01*
X58261Y640083D01*
X58227Y640044D01*
X58187Y640011D01*
X58148Y639951D01*
X58133Y639933D01*
X58122Y639923D01*
X58121Y639920D01*
X58101Y639896D01*
X58082Y639848D01*
X58054Y639804D01*
X58037Y639738D01*
X58030Y639723D01*
X52023Y639723D01*
X52023Y644191D01*
X53340Y644191D01*
X53360Y644194D01*
X53379Y644192D01*
X53481Y644214D01*
X53583Y644230D01*
X53600Y644240D01*
X53620Y644244D01*
X53709Y644297D01*
X53800Y644346D01*
X53814Y644360D01*
X53831Y644370D01*
X53898Y644449D01*
X53970Y644524D01*
X53978Y644542D01*
X53991Y644557D01*
X54030Y644653D01*
X54073Y644747D01*
X54075Y644767D01*
X54083Y644785D01*
X54101Y644952D01*
X54101Y647700D01*
X54098Y647720D01*
X54100Y647739D01*
X54078Y647841D01*
X54062Y647943D01*
X54052Y647960D01*
X54048Y647980D01*
X53995Y648069D01*
X53946Y648160D01*
X53932Y648174D01*
X53922Y648191D01*
X53843Y648258D01*
X53768Y648330D01*
X53750Y648338D01*
X53735Y648351D01*
X53639Y648390D01*
X53545Y648433D01*
X53525Y648435D01*
X53507Y648443D01*
X53340Y648461D01*
X43249Y648461D01*
X40385Y651325D01*
X40385Y732467D01*
X53128Y745210D01*
X53170Y745268D01*
X53219Y745320D01*
X53241Y745367D01*
X53271Y745409D01*
X53292Y745478D01*
X53323Y745543D01*
X53328Y745595D01*
X53344Y745645D01*
X53342Y745716D01*
X53350Y745787D01*
X53339Y745838D01*
X53337Y745890D01*
X53313Y745958D01*
X53298Y746028D01*
X53271Y746073D01*
X53253Y746121D01*
X53208Y746177D01*
X53171Y746239D01*
X53132Y746273D01*
X53099Y746313D01*
X53039Y746352D01*
X52984Y746399D01*
X52936Y746418D01*
X52892Y746446D01*
X52823Y746464D01*
X52756Y746491D01*
X52685Y746499D01*
X52654Y746507D01*
X52630Y746505D01*
X52590Y746509D01*
X52023Y746509D01*
X52023Y750977D01*
X58580Y750977D01*
X58670Y750992D01*
X58761Y750999D01*
X58790Y751011D01*
X58822Y751017D01*
X58903Y751059D01*
X58987Y751095D01*
X59019Y751121D01*
X59040Y751132D01*
X59062Y751155D01*
X59118Y751200D01*
X66070Y758152D01*
X66123Y758226D01*
X66183Y758296D01*
X66195Y758326D01*
X66214Y758352D01*
X66241Y758439D01*
X66275Y758524D01*
X66279Y758565D01*
X66286Y758587D01*
X66285Y758619D01*
X66293Y758691D01*
X66293Y767519D01*
X69702Y770928D01*
X69755Y771002D01*
X69815Y771072D01*
X69827Y771102D01*
X69846Y771128D01*
X69873Y771215D01*
X69907Y771300D01*
X69911Y771341D01*
X69918Y771363D01*
X69917Y771395D01*
X69925Y771466D01*
X69925Y771990D01*
X69914Y772060D01*
X69912Y772132D01*
X69894Y772181D01*
X69886Y772232D01*
X69852Y772296D01*
X69827Y772363D01*
X69795Y772404D01*
X69770Y772450D01*
X69718Y772499D01*
X69674Y772555D01*
X69630Y772583D01*
X69592Y772619D01*
X69527Y772649D01*
X69467Y772688D01*
X69416Y772701D01*
X69369Y772723D01*
X69298Y772731D01*
X69228Y772748D01*
X69176Y772744D01*
X69125Y772750D01*
X69054Y772735D01*
X68983Y772729D01*
X68935Y772709D01*
X68884Y772698D01*
X68823Y772661D01*
X68757Y772633D01*
X68701Y772588D01*
X68673Y772571D01*
X68658Y772554D01*
X68626Y772528D01*
X58859Y762761D01*
X51555Y762761D01*
X51464Y762747D01*
X51374Y762739D01*
X51344Y762727D01*
X51312Y762722D01*
X51231Y762679D01*
X51147Y762643D01*
X51115Y762617D01*
X51094Y762606D01*
X51072Y762583D01*
X51016Y762538D01*
X48268Y759790D01*
X48226Y759732D01*
X48177Y759680D01*
X48155Y759633D01*
X48125Y759591D01*
X48104Y759522D01*
X48073Y759457D01*
X48068Y759405D01*
X48052Y759355D01*
X48054Y759284D01*
X48046Y759213D01*
X48057Y759162D01*
X48059Y759110D01*
X48083Y759042D01*
X48098Y758972D01*
X48125Y758927D01*
X48143Y758879D01*
X48188Y758823D01*
X48225Y758761D01*
X48264Y758727D01*
X48297Y758687D01*
X48357Y758648D01*
X48412Y758601D01*
X48460Y758582D01*
X48504Y758554D01*
X48573Y758536D01*
X48640Y758509D01*
X48711Y758501D01*
X48742Y758493D01*
X48766Y758495D01*
X48806Y758491D01*
X48977Y758491D01*
X48977Y754023D01*
X42816Y754023D01*
X42726Y754008D01*
X42635Y754001D01*
X42606Y753989D01*
X42574Y753983D01*
X42493Y753941D01*
X42409Y753905D01*
X42377Y753879D01*
X42356Y753868D01*
X42334Y753845D01*
X42278Y753800D01*
X39086Y750608D01*
X39033Y750534D01*
X38973Y750464D01*
X38961Y750434D01*
X38942Y750408D01*
X38915Y750321D01*
X38881Y750236D01*
X38877Y750195D01*
X38870Y750173D01*
X38871Y750141D01*
X38863Y750069D01*
X38863Y571239D01*
X38877Y571148D01*
X38885Y571058D01*
X38897Y571028D01*
X38902Y570996D01*
X38945Y570915D01*
X38981Y570831D01*
X39007Y570799D01*
X39018Y570778D01*
X39041Y570756D01*
X39086Y570700D01*
X42726Y567060D01*
X42784Y567018D01*
X42836Y566969D01*
X42883Y566947D01*
X42925Y566917D01*
X42994Y566896D01*
X43059Y566865D01*
X43111Y566860D01*
X43161Y566844D01*
X43232Y566846D01*
X43303Y566838D01*
X43354Y566849D01*
G37*
%LPC*%
G36*
X301655Y415988D02*
X301655Y415988D01*
X295843Y418395D01*
X291395Y422843D01*
X288988Y428655D01*
X288988Y429768D01*
X288985Y429788D01*
X288987Y429807D01*
X288965Y429909D01*
X288948Y430011D01*
X288939Y430028D01*
X288934Y430048D01*
X288881Y430137D01*
X288833Y430228D01*
X288819Y430242D01*
X288808Y430259D01*
X288730Y430326D01*
X288655Y430398D01*
X288637Y430406D01*
X288621Y430419D01*
X288525Y430458D01*
X288432Y430501D01*
X288412Y430503D01*
X288393Y430511D01*
X288227Y430529D01*
X259657Y430529D01*
X258094Y432092D01*
X239050Y451136D01*
X239013Y451163D01*
X238981Y451197D01*
X238913Y451234D01*
X238850Y451279D01*
X238806Y451293D01*
X238765Y451315D01*
X238689Y451329D01*
X238615Y451352D01*
X238569Y451351D01*
X238523Y451359D01*
X238447Y451347D01*
X238369Y451345D01*
X238326Y451330D01*
X238280Y451323D01*
X238211Y451288D01*
X238138Y451261D01*
X238102Y451232D01*
X238061Y451211D01*
X238007Y451156D01*
X237946Y451107D01*
X237932Y451085D01*
X234787Y447940D01*
X230773Y446277D01*
X226427Y446277D01*
X222413Y447940D01*
X219340Y451013D01*
X217677Y455027D01*
X217677Y459373D01*
X219340Y463387D01*
X222413Y466460D01*
X226427Y468123D01*
X230773Y468123D01*
X234787Y466460D01*
X237860Y463387D01*
X239523Y459373D01*
X239523Y457447D01*
X239537Y457356D01*
X239545Y457266D01*
X239557Y457236D01*
X239562Y457204D01*
X239605Y457123D01*
X239641Y457039D01*
X239667Y457007D01*
X239678Y456986D01*
X239701Y456964D01*
X239746Y456908D01*
X241778Y454876D01*
X241836Y454834D01*
X241888Y454785D01*
X241935Y454763D01*
X241977Y454733D01*
X242046Y454712D01*
X242111Y454681D01*
X242163Y454676D01*
X242213Y454660D01*
X242284Y454662D01*
X242355Y454654D01*
X242406Y454665D01*
X242458Y454667D01*
X242526Y454691D01*
X242596Y454706D01*
X242641Y454733D01*
X242689Y454751D01*
X242745Y454796D01*
X242807Y454833D01*
X242841Y454872D01*
X242881Y454905D01*
X242920Y454965D01*
X242967Y455020D01*
X242986Y455068D01*
X243014Y455112D01*
X243032Y455181D01*
X243059Y455248D01*
X243067Y455319D01*
X243075Y455350D01*
X243073Y455374D01*
X243077Y455414D01*
X243077Y459373D01*
X244740Y463387D01*
X247813Y466460D01*
X251827Y468123D01*
X256173Y468123D01*
X260187Y466460D01*
X263260Y463387D01*
X264923Y459373D01*
X264923Y455027D01*
X263260Y451013D01*
X260187Y447940D01*
X256173Y446277D01*
X252214Y446277D01*
X252144Y446266D01*
X252072Y446264D01*
X252023Y446246D01*
X251972Y446238D01*
X251908Y446204D01*
X251841Y446179D01*
X251800Y446147D01*
X251754Y446122D01*
X251705Y446070D01*
X251649Y446026D01*
X251621Y445982D01*
X251585Y445944D01*
X251555Y445879D01*
X251516Y445819D01*
X251503Y445768D01*
X251481Y445721D01*
X251473Y445650D01*
X251456Y445580D01*
X251460Y445528D01*
X251454Y445477D01*
X251469Y445406D01*
X251475Y445335D01*
X251495Y445287D01*
X251506Y445236D01*
X251543Y445175D01*
X251571Y445109D01*
X251616Y445053D01*
X251633Y445025D01*
X251650Y445010D01*
X251676Y444978D01*
X261328Y435326D01*
X261402Y435273D01*
X261472Y435213D01*
X261502Y435201D01*
X261528Y435182D01*
X261615Y435155D01*
X261700Y435121D01*
X261741Y435117D01*
X261763Y435110D01*
X261795Y435111D01*
X261867Y435103D01*
X288544Y435103D01*
X288659Y435122D01*
X288775Y435139D01*
X288781Y435141D01*
X288787Y435142D01*
X288890Y435197D01*
X288995Y435250D01*
X288999Y435255D01*
X289004Y435258D01*
X289084Y435342D01*
X289167Y435426D01*
X289170Y435432D01*
X289174Y435436D01*
X289182Y435453D01*
X289248Y435573D01*
X291395Y440757D01*
X295843Y445205D01*
X301655Y447612D01*
X307945Y447612D01*
X313757Y445205D01*
X318205Y440757D01*
X320612Y434945D01*
X320612Y428655D01*
X318205Y422843D01*
X313757Y418395D01*
X307945Y415988D01*
X301655Y415988D01*
G37*
%LPD*%
%LPC*%
G36*
X161289Y692657D02*
X161289Y692657D01*
X161289Y696977D01*
X172467Y696977D01*
X172467Y694864D01*
X172294Y694217D01*
X171959Y693638D01*
X171486Y693165D01*
X170907Y692830D01*
X170260Y692657D01*
X161289Y692657D01*
G37*
%LPD*%
%LPC*%
G36*
X149272Y692657D02*
X149272Y692657D01*
X148625Y692830D01*
X148046Y693165D01*
X147573Y693638D01*
X147238Y694217D01*
X147065Y694864D01*
X147065Y696977D01*
X158243Y696977D01*
X158243Y692657D01*
X149272Y692657D01*
G37*
%LPD*%
%LPC*%
G36*
X52023Y754023D02*
X52023Y754023D01*
X52023Y758491D01*
X55784Y758491D01*
X56431Y758318D01*
X57010Y757983D01*
X57483Y757510D01*
X57818Y756931D01*
X57991Y756284D01*
X57991Y754023D01*
X52023Y754023D01*
G37*
%LPD*%
%LPC*%
G36*
X52023Y449223D02*
X52023Y449223D01*
X52023Y453691D01*
X55784Y453691D01*
X56431Y453518D01*
X57010Y453183D01*
X57483Y452710D01*
X57818Y452131D01*
X57991Y451484D01*
X57991Y449223D01*
X52023Y449223D01*
G37*
%LPD*%
%LPC*%
G36*
X220623Y636823D02*
X220623Y636823D01*
X220623Y642791D01*
X222884Y642791D01*
X223531Y642618D01*
X224110Y642283D01*
X224583Y641810D01*
X224918Y641231D01*
X225091Y640584D01*
X225091Y636823D01*
X220623Y636823D01*
G37*
%LPD*%
%LPC*%
G36*
X43009Y449223D02*
X43009Y449223D01*
X43009Y451484D01*
X43182Y452131D01*
X43517Y452710D01*
X43990Y453183D01*
X44569Y453518D01*
X45216Y453691D01*
X48977Y453691D01*
X48977Y449223D01*
X43009Y449223D01*
G37*
%LPD*%
%LPC*%
G36*
X43009Y550823D02*
X43009Y550823D01*
X43009Y553084D01*
X43182Y553731D01*
X43517Y554310D01*
X43990Y554783D01*
X44569Y555118D01*
X45216Y555291D01*
X48977Y555291D01*
X48977Y550823D01*
X43009Y550823D01*
G37*
%LPD*%
%LPC*%
G36*
X303123Y728809D02*
X303123Y728809D01*
X303123Y734777D01*
X307591Y734777D01*
X307591Y731016D01*
X307418Y730369D01*
X307083Y729790D01*
X306610Y729317D01*
X306031Y728982D01*
X305384Y728809D01*
X303123Y728809D01*
G37*
%LPD*%
%LPC*%
G36*
X220623Y627809D02*
X220623Y627809D01*
X220623Y633777D01*
X225091Y633777D01*
X225091Y630016D01*
X224918Y629369D01*
X224583Y628790D01*
X224110Y628317D01*
X223531Y627982D01*
X222884Y627809D01*
X220623Y627809D01*
G37*
%LPD*%
%LPC*%
G36*
X43009Y639723D02*
X43009Y639723D01*
X43009Y641984D01*
X43182Y642631D01*
X43517Y643210D01*
X43990Y643683D01*
X44569Y644018D01*
X45216Y644191D01*
X48977Y644191D01*
X48977Y639723D01*
X43009Y639723D01*
G37*
%LPD*%
%LPC*%
G36*
X295609Y737823D02*
X295609Y737823D01*
X295609Y741584D01*
X295782Y742231D01*
X296117Y742810D01*
X296590Y743283D01*
X297169Y743618D01*
X297816Y743791D01*
X300077Y743791D01*
X300077Y737823D01*
X295609Y737823D01*
G37*
%LPD*%
%LPC*%
G36*
X213109Y636823D02*
X213109Y636823D01*
X213109Y640584D01*
X213282Y641231D01*
X213617Y641810D01*
X214090Y642283D01*
X214669Y642618D01*
X215316Y642791D01*
X217577Y642791D01*
X217577Y636823D01*
X213109Y636823D01*
G37*
%LPD*%
%LPC*%
G36*
X52023Y632209D02*
X52023Y632209D01*
X52023Y636677D01*
X57991Y636677D01*
X57991Y634416D01*
X57818Y633769D01*
X57483Y633190D01*
X57010Y632717D01*
X56431Y632382D01*
X55784Y632209D01*
X52023Y632209D01*
G37*
%LPD*%
%LPC*%
G36*
X52023Y543309D02*
X52023Y543309D01*
X52023Y547777D01*
X57991Y547777D01*
X57991Y545516D01*
X57818Y544869D01*
X57483Y544290D01*
X57010Y543817D01*
X56431Y543482D01*
X55784Y543309D01*
X52023Y543309D01*
G37*
%LPD*%
%LPC*%
G36*
X52023Y441709D02*
X52023Y441709D01*
X52023Y446177D01*
X57991Y446177D01*
X57991Y443916D01*
X57818Y443269D01*
X57483Y442690D01*
X57010Y442217D01*
X56431Y441882D01*
X55784Y441709D01*
X52023Y441709D01*
G37*
%LPD*%
%LPC*%
G36*
X215316Y627809D02*
X215316Y627809D01*
X214669Y627982D01*
X214090Y628317D01*
X213617Y628790D01*
X213282Y629369D01*
X213109Y630016D01*
X213109Y633777D01*
X217577Y633777D01*
X217577Y627809D01*
X215316Y627809D01*
G37*
%LPD*%
%LPC*%
G36*
X297816Y728809D02*
X297816Y728809D01*
X297169Y728982D01*
X296590Y729317D01*
X296117Y729790D01*
X295782Y730369D01*
X295609Y731016D01*
X295609Y734777D01*
X300077Y734777D01*
X300077Y728809D01*
X297816Y728809D01*
G37*
%LPD*%
%LPC*%
G36*
X45216Y543309D02*
X45216Y543309D01*
X44569Y543482D01*
X43990Y543817D01*
X43517Y544290D01*
X43182Y544869D01*
X43009Y545516D01*
X43009Y547777D01*
X48977Y547777D01*
X48977Y543309D01*
X45216Y543309D01*
G37*
%LPD*%
%LPC*%
G36*
X45216Y746509D02*
X45216Y746509D01*
X44569Y746682D01*
X43990Y747017D01*
X43517Y747490D01*
X43182Y748069D01*
X43009Y748716D01*
X43009Y750977D01*
X48977Y750977D01*
X48977Y746509D01*
X45216Y746509D01*
G37*
%LPD*%
%LPC*%
G36*
X45216Y632209D02*
X45216Y632209D01*
X44569Y632382D01*
X43990Y632717D01*
X43517Y633190D01*
X43182Y633769D01*
X43009Y634416D01*
X43009Y636677D01*
X48977Y636677D01*
X48977Y632209D01*
X45216Y632209D01*
G37*
%LPD*%
%LPC*%
G36*
X45216Y441709D02*
X45216Y441709D01*
X44569Y441882D01*
X43990Y442217D01*
X43517Y442690D01*
X43182Y443269D01*
X43009Y443916D01*
X43009Y446177D01*
X48977Y446177D01*
X48977Y441709D01*
X45216Y441709D01*
G37*
%LPD*%
%LPC*%
G36*
X219099Y635299D02*
X219099Y635299D01*
X219099Y635301D01*
X219101Y635301D01*
X219101Y635299D01*
X219099Y635299D01*
G37*
%LPD*%
%LPC*%
G36*
X159765Y698499D02*
X159765Y698499D01*
X159765Y698501D01*
X159767Y698501D01*
X159767Y698499D01*
X159765Y698499D01*
G37*
%LPD*%
%LPC*%
G36*
X50499Y549299D02*
X50499Y549299D01*
X50499Y549301D01*
X50501Y549301D01*
X50501Y549299D01*
X50499Y549299D01*
G37*
%LPD*%
%LPC*%
G36*
X50499Y638199D02*
X50499Y638199D01*
X50499Y638201D01*
X50501Y638201D01*
X50501Y638199D01*
X50499Y638199D01*
G37*
%LPD*%
%LPC*%
G36*
X301599Y736299D02*
X301599Y736299D01*
X301599Y736301D01*
X301601Y736301D01*
X301601Y736299D01*
X301599Y736299D01*
G37*
%LPD*%
%LPC*%
G36*
X50499Y752499D02*
X50499Y752499D01*
X50499Y752501D01*
X50501Y752501D01*
X50501Y752499D01*
X50499Y752499D01*
G37*
%LPD*%
%LPC*%
G36*
X50499Y447699D02*
X50499Y447699D01*
X50499Y447701D01*
X50501Y447701D01*
X50501Y447699D01*
X50499Y447699D01*
G37*
%LPD*%
D10*
X76400Y447700D03*
X76400Y457200D03*
X76400Y466700D03*
X50500Y466700D03*
X50500Y447700D03*
D11*
X221234Y698500D03*
X159766Y698500D03*
X221234Y711200D03*
X221234Y723900D03*
X159766Y711200D03*
X159766Y723900D03*
X221234Y736600D03*
X159766Y736600D03*
X221234Y749300D03*
X221234Y762000D03*
X159766Y749300D03*
X159766Y762000D03*
X221234Y774700D03*
X159766Y774700D03*
D10*
X76400Y549300D03*
X76400Y558800D03*
X76400Y568300D03*
X50500Y568300D03*
X50500Y549300D03*
D12*
X301600Y762200D03*
X292100Y762200D03*
X282600Y762200D03*
X282600Y736300D03*
X301600Y736300D03*
D10*
X76400Y638200D03*
X76400Y647700D03*
X76400Y657200D03*
X50500Y657200D03*
X50500Y638200D03*
D12*
X219100Y609400D03*
X228600Y609400D03*
X238100Y609400D03*
X238100Y635300D03*
X219100Y635300D03*
D10*
X76400Y752500D03*
X76400Y762000D03*
X76400Y771500D03*
X50500Y771500D03*
X50500Y752500D03*
D13*
X304800Y431800D03*
X304800Y561340D03*
D14*
X254000Y457200D03*
X228600Y457200D03*
X254000Y482600D03*
X228600Y482600D03*
X254000Y508000D03*
X228600Y508000D03*
X254000Y533400D03*
X228600Y533400D03*
D15*
X76200Y656844D02*
X62484Y656844D01*
X56388Y650748D01*
X44196Y650748D01*
X42672Y652272D01*
X42672Y731520D01*
X68580Y757428D01*
X68580Y766572D01*
X73152Y771144D01*
X76200Y771144D01*
X76400Y657200D02*
X76200Y656844D01*
X76200Y771144D02*
X76400Y771500D01*
X272796Y763524D02*
X281940Y763524D01*
X272796Y763524D02*
X262128Y774192D01*
X222504Y774192D01*
X281940Y763524D02*
X282600Y762200D01*
X222504Y774192D02*
X221234Y774700D01*
X76200Y536448D02*
X76200Y467868D01*
X65532Y560832D02*
X71628Y566928D01*
X76200Y566928D01*
X76200Y467868D02*
X76400Y466700D01*
X76200Y566928D02*
X76400Y568300D01*
X234696Y605028D02*
X237744Y608076D01*
X234696Y605028D02*
X234696Y603504D01*
X199644Y568452D01*
X77724Y568452D01*
X237744Y608076D02*
X238100Y609400D01*
X77724Y568452D02*
X76400Y568300D01*
X205740Y774192D02*
X220980Y774192D01*
X221234Y774700D01*
X56388Y650748D02*
X56388Y646176D01*
X85344Y617220D01*
X233172Y617220D01*
X237744Y612648D01*
X237744Y609600D01*
X238100Y609400D01*
D16*
X76200Y536448D03*
X65532Y560832D03*
X205740Y774192D03*
D15*
X50292Y638556D02*
X39624Y649224D01*
X39624Y740664D01*
X50292Y751332D01*
X50292Y638556D02*
X50500Y638200D01*
X50292Y751332D02*
X50500Y752500D01*
X50292Y454152D02*
X50292Y448056D01*
X50292Y454152D02*
X42672Y461772D01*
X42672Y541020D01*
X50292Y548640D01*
X50292Y448056D02*
X50500Y447700D01*
X50292Y548640D02*
X50500Y549300D01*
X217932Y635508D02*
X217932Y640080D01*
X210312Y647700D02*
X160020Y697992D01*
X210312Y647700D02*
X217932Y640080D01*
X217932Y635508D02*
X219100Y635300D01*
X160020Y697992D02*
X159766Y698500D01*
X231648Y667512D02*
X300228Y736092D01*
X211836Y647700D02*
X210312Y647700D01*
X300228Y736092D02*
X301600Y736300D01*
X59436Y548640D02*
X51816Y548640D01*
X59436Y548640D02*
X65532Y542544D01*
X106680Y542544D01*
X51816Y548640D02*
X50500Y549300D01*
X86868Y601980D02*
X51816Y637032D01*
X50500Y638200D01*
D16*
X231648Y667512D03*
X211836Y647700D03*
X106680Y542544D03*
X86868Y601980D03*
D15*
X76200Y550164D02*
X62484Y550164D01*
X50292Y562356D01*
X44196Y562356D01*
X36576Y569976D01*
X36576Y751332D01*
X50292Y765048D01*
X57912Y765048D01*
X76200Y783336D01*
X187452Y783336D01*
X208788Y762000D01*
X221234Y762000D01*
X76200Y550164D02*
X76400Y549300D01*
X222504Y699516D02*
X257556Y699516D01*
X289560Y731520D01*
X289560Y742188D01*
X269748Y762000D01*
X221234Y762000D01*
X222504Y699516D02*
X221234Y698500D01*
X195072Y448056D02*
X77724Y448056D01*
X195072Y448056D02*
X228600Y481584D01*
X77724Y448056D02*
X76400Y447700D01*
X228600Y481584D02*
X228600Y482600D01*
X227076Y736092D02*
X222504Y736092D01*
X227076Y736092D02*
X234696Y728472D01*
X234696Y707136D01*
X231648Y704088D01*
X208788Y704088D01*
X208788Y681228D01*
X246888Y643128D01*
X246888Y544068D01*
X240792Y537972D01*
X240792Y495300D01*
X228600Y483108D01*
X222504Y736092D02*
X221234Y736600D01*
X228600Y483108D02*
X228600Y482600D01*
X179832Y557784D02*
X77724Y557784D01*
X188976Y548640D02*
X228600Y509016D01*
X188976Y548640D02*
X179832Y557784D01*
X77724Y557784D02*
X76400Y558800D01*
X228600Y509016D02*
X228600Y508000D01*
X220980Y710184D02*
X210312Y710184D01*
X205740Y705612D01*
X205740Y679704D01*
X243840Y641604D01*
X243840Y603504D01*
X188976Y548640D01*
X220980Y710184D02*
X221234Y711200D01*
X301752Y752856D02*
X301752Y762000D01*
X301752Y752856D02*
X324612Y729996D01*
X324612Y551688D01*
X254508Y481584D01*
X301752Y762000D02*
X301600Y762200D01*
X254000Y482600D02*
X254508Y481584D01*
X181356Y762000D02*
X159766Y762000D01*
X286512Y780288D02*
X300228Y766572D01*
X300228Y763524D01*
X301600Y762200D01*
D16*
X181356Y762000D03*
X286512Y780288D03*
D15*
X292608Y762000D02*
X292608Y757428D01*
X321564Y728472D01*
X321564Y553212D01*
X277368Y509016D01*
X254508Y509016D01*
X292608Y762000D02*
X292100Y762200D01*
X254508Y509016D02*
X254000Y508000D01*
X205740Y748284D02*
X160020Y748284D01*
X159766Y749300D01*
D16*
X205740Y748284D03*
D15*
X80772Y650748D02*
X77724Y647700D01*
X80772Y650748D02*
X82296Y650748D01*
X155448Y723900D01*
X159766Y723900D01*
X77724Y647700D02*
X76400Y647700D01*
X153924Y774192D02*
X158496Y774192D01*
X153924Y774192D02*
X146304Y766572D01*
X146304Y733044D01*
X155448Y723900D01*
X158496Y774192D02*
X159766Y774700D01*
X159766Y723900D02*
X158496Y723900D01*
X65532Y467868D02*
X51816Y467868D01*
X199644Y601980D02*
X224028Y601980D01*
X228600Y606552D01*
X228600Y609400D01*
X51816Y467868D02*
X50500Y466700D01*
D16*
X65532Y467868D03*
X199644Y601980D03*
D15*
X64008Y568452D02*
X51816Y568452D01*
X64008Y568452D02*
X103632Y608076D01*
X217932Y608076D01*
X51816Y568452D02*
X50500Y568300D01*
X217932Y608076D02*
X219100Y609400D01*
X237744Y635508D02*
X237744Y638556D01*
X166116Y710184D01*
X160020Y710184D01*
X237744Y635508D02*
X238100Y635300D01*
X160020Y710184D02*
X159766Y711200D01*
X82296Y638556D02*
X77724Y638556D01*
X82296Y638556D02*
X153924Y710184D01*
X158496Y710184D01*
X77724Y638556D02*
X76400Y638200D01*
X158496Y710184D02*
X159766Y711200D01*
X249936Y737616D02*
X281940Y737616D01*
X249936Y737616D02*
X231648Y755904D01*
X196596Y755904D01*
X172212Y780288D01*
X97536Y780288D01*
X79248Y762000D01*
X76400Y762000D01*
X281940Y737616D02*
X282600Y736300D01*
X51816Y726948D02*
X51816Y658368D01*
X51816Y726948D02*
X76200Y751332D01*
X51816Y658368D02*
X50500Y657200D01*
X76200Y751332D02*
X76400Y752500D01*
X228600Y457200D02*
X236220Y457200D01*
X260604Y432816D01*
X304800Y432816D01*
X304800Y431800D01*
X277368Y533400D02*
X254000Y533400D01*
X277368Y533400D02*
X304800Y560832D01*
X304800Y561340D01*
X152400Y457200D02*
X76400Y457200D01*
X222504Y748284D02*
X227076Y748284D01*
X237744Y737616D01*
X222504Y748284D02*
X221234Y749300D01*
D16*
X152400Y457200D03*
X237744Y737616D03*
M02*
