G04 EAGLE Gerber RS-274X export*
G75*
%MOMM*%
%FSLAX34Y34*%
%LPD*%
%INSilkscreen Top*%
%IPPOS*%
%AMOC8*
5,1,8,0,0,1.08239X$1,22.5*%
G01*
%ADD10C,0.010000*%
%ADD11C,0.127000*%
%ADD12C,0.075000*%
%ADD13C,0.101600*%
%ADD14C,0.152400*%
%ADD15C,0.050800*%
%ADD16C,0.203200*%


D10*
X76400Y457200D02*
X76500Y457200D01*
D11*
X71500Y471400D02*
X55500Y471400D01*
X55500Y443000D02*
X71500Y443000D01*
D12*
X57000Y444500D02*
X57000Y470000D01*
X70100Y470000D01*
X70100Y444500D01*
X57000Y444500D01*
D13*
X37592Y433606D02*
X25908Y433606D01*
X37592Y432308D02*
X37592Y434904D01*
X25908Y434904D02*
X25908Y432308D01*
X37592Y442068D02*
X37592Y444664D01*
X37592Y442068D02*
X37590Y441969D01*
X37584Y441869D01*
X37575Y441770D01*
X37562Y441672D01*
X37545Y441574D01*
X37524Y441476D01*
X37499Y441380D01*
X37471Y441285D01*
X37439Y441191D01*
X37404Y441098D01*
X37365Y441006D01*
X37322Y440916D01*
X37277Y440828D01*
X37227Y440741D01*
X37175Y440657D01*
X37119Y440574D01*
X37061Y440494D01*
X36999Y440416D01*
X36934Y440341D01*
X36866Y440268D01*
X36796Y440198D01*
X36723Y440130D01*
X36648Y440065D01*
X36570Y440003D01*
X36490Y439945D01*
X36407Y439889D01*
X36323Y439837D01*
X36236Y439787D01*
X36148Y439742D01*
X36058Y439699D01*
X35966Y439660D01*
X35873Y439625D01*
X35779Y439593D01*
X35684Y439565D01*
X35588Y439540D01*
X35490Y439519D01*
X35392Y439502D01*
X35294Y439489D01*
X35195Y439480D01*
X35095Y439474D01*
X34996Y439472D01*
X34996Y439471D02*
X28504Y439471D01*
X28405Y439473D01*
X28305Y439479D01*
X28206Y439488D01*
X28108Y439501D01*
X28010Y439519D01*
X27912Y439539D01*
X27816Y439564D01*
X27720Y439592D01*
X27626Y439624D01*
X27533Y439659D01*
X27442Y439698D01*
X27352Y439741D01*
X27263Y439786D01*
X27177Y439836D01*
X27092Y439888D01*
X27010Y439944D01*
X26930Y440003D01*
X26852Y440064D01*
X26776Y440129D01*
X26703Y440197D01*
X26633Y440267D01*
X26565Y440340D01*
X26500Y440416D01*
X26439Y440494D01*
X26380Y440574D01*
X26324Y440656D01*
X26272Y440741D01*
X26223Y440827D01*
X26177Y440916D01*
X26134Y441006D01*
X26095Y441097D01*
X26060Y441190D01*
X26028Y441284D01*
X26000Y441380D01*
X25975Y441476D01*
X25955Y441574D01*
X25937Y441672D01*
X25924Y441770D01*
X25915Y441869D01*
X25909Y441968D01*
X25907Y442068D01*
X25908Y442068D02*
X25908Y444664D01*
X28504Y449030D02*
X25908Y452275D01*
X37592Y452275D01*
X37592Y449030D02*
X37592Y455521D01*
D14*
X170942Y695960D02*
X170942Y777240D01*
X206248Y781050D02*
X206370Y781048D01*
X206492Y781042D01*
X206614Y781032D01*
X206735Y781019D01*
X206856Y781001D01*
X206976Y780980D01*
X207096Y780954D01*
X207214Y780925D01*
X207332Y780893D01*
X207449Y780856D01*
X207564Y780816D01*
X207678Y780772D01*
X207790Y780724D01*
X207901Y780673D01*
X208010Y780618D01*
X208118Y780560D01*
X208223Y780498D01*
X208326Y780433D01*
X208428Y780365D01*
X208527Y780293D01*
X208623Y780219D01*
X208718Y780141D01*
X208809Y780060D01*
X208899Y779977D01*
X208985Y779891D01*
X209068Y779801D01*
X209149Y779710D01*
X209227Y779615D01*
X209301Y779519D01*
X209373Y779420D01*
X209441Y779318D01*
X209506Y779215D01*
X209568Y779110D01*
X209626Y779002D01*
X209681Y778893D01*
X209732Y778782D01*
X209780Y778670D01*
X209824Y778556D01*
X209864Y778441D01*
X209901Y778324D01*
X209933Y778206D01*
X209962Y778088D01*
X209988Y777968D01*
X210009Y777848D01*
X210027Y777727D01*
X210040Y777606D01*
X210050Y777484D01*
X210056Y777362D01*
X210058Y777240D01*
X170942Y695960D02*
X170944Y695838D01*
X170950Y695716D01*
X170960Y695594D01*
X170973Y695473D01*
X170991Y695352D01*
X171012Y695232D01*
X171038Y695112D01*
X171067Y694994D01*
X171099Y694876D01*
X171136Y694759D01*
X171176Y694644D01*
X171220Y694530D01*
X171268Y694418D01*
X171319Y694307D01*
X171374Y694198D01*
X171432Y694090D01*
X171494Y693985D01*
X171559Y693882D01*
X171627Y693780D01*
X171699Y693681D01*
X171773Y693585D01*
X171851Y693490D01*
X171932Y693399D01*
X172015Y693309D01*
X172101Y693223D01*
X172191Y693140D01*
X172282Y693059D01*
X172377Y692981D01*
X172473Y692907D01*
X172572Y692835D01*
X172674Y692767D01*
X172777Y692702D01*
X172882Y692640D01*
X172990Y692582D01*
X173099Y692527D01*
X173210Y692476D01*
X173322Y692428D01*
X173436Y692384D01*
X173551Y692344D01*
X173668Y692307D01*
X173786Y692275D01*
X173904Y692246D01*
X174024Y692220D01*
X174144Y692199D01*
X174265Y692181D01*
X174386Y692168D01*
X174508Y692158D01*
X174630Y692152D01*
X174752Y692150D01*
X170942Y777240D02*
X170944Y777362D01*
X170950Y777484D01*
X170960Y777606D01*
X170973Y777727D01*
X170991Y777848D01*
X171012Y777968D01*
X171038Y778088D01*
X171067Y778206D01*
X171099Y778324D01*
X171136Y778441D01*
X171176Y778556D01*
X171220Y778670D01*
X171268Y778782D01*
X171319Y778893D01*
X171374Y779002D01*
X171432Y779110D01*
X171494Y779215D01*
X171559Y779318D01*
X171627Y779420D01*
X171699Y779519D01*
X171773Y779615D01*
X171851Y779710D01*
X171932Y779801D01*
X172015Y779891D01*
X172101Y779977D01*
X172191Y780060D01*
X172282Y780141D01*
X172377Y780219D01*
X172473Y780293D01*
X172572Y780365D01*
X172674Y780433D01*
X172777Y780498D01*
X172882Y780560D01*
X172990Y780618D01*
X173099Y780673D01*
X173210Y780724D01*
X173322Y780772D01*
X173436Y780816D01*
X173551Y780856D01*
X173668Y780893D01*
X173786Y780925D01*
X173904Y780954D01*
X174024Y780980D01*
X174144Y781001D01*
X174265Y781019D01*
X174386Y781032D01*
X174508Y781042D01*
X174630Y781048D01*
X174752Y781050D01*
X210058Y695960D02*
X210056Y695838D01*
X210050Y695716D01*
X210040Y695594D01*
X210027Y695473D01*
X210009Y695352D01*
X209988Y695232D01*
X209962Y695112D01*
X209933Y694994D01*
X209901Y694876D01*
X209864Y694759D01*
X209824Y694644D01*
X209780Y694530D01*
X209732Y694418D01*
X209681Y694307D01*
X209626Y694198D01*
X209568Y694090D01*
X209506Y693985D01*
X209441Y693882D01*
X209373Y693780D01*
X209301Y693681D01*
X209227Y693585D01*
X209149Y693490D01*
X209068Y693399D01*
X208985Y693309D01*
X208899Y693223D01*
X208809Y693140D01*
X208718Y693059D01*
X208623Y692981D01*
X208527Y692907D01*
X208428Y692835D01*
X208326Y692767D01*
X208223Y692702D01*
X208118Y692640D01*
X208010Y692582D01*
X207901Y692527D01*
X207790Y692476D01*
X207678Y692428D01*
X207564Y692384D01*
X207449Y692344D01*
X207332Y692307D01*
X207214Y692275D01*
X207096Y692246D01*
X206976Y692220D01*
X206856Y692199D01*
X206735Y692181D01*
X206614Y692168D01*
X206492Y692158D01*
X206370Y692152D01*
X206248Y692150D01*
X210058Y695960D02*
X210058Y777240D01*
X206248Y781050D02*
X174752Y781050D01*
X174752Y692150D02*
X185420Y692150D01*
X195580Y692150D01*
X206248Y692150D01*
X195580Y692150D02*
X195578Y692291D01*
X195572Y692432D01*
X195562Y692573D01*
X195549Y692714D01*
X195531Y692854D01*
X195509Y692993D01*
X195484Y693132D01*
X195455Y693271D01*
X195422Y693408D01*
X195385Y693544D01*
X195344Y693679D01*
X195300Y693814D01*
X195252Y693946D01*
X195200Y694078D01*
X195145Y694208D01*
X195086Y694336D01*
X195023Y694463D01*
X194957Y694587D01*
X194888Y694710D01*
X194815Y694831D01*
X194739Y694950D01*
X194659Y695067D01*
X194576Y695181D01*
X194491Y695294D01*
X194402Y695403D01*
X194310Y695511D01*
X194215Y695615D01*
X194117Y695717D01*
X194016Y695816D01*
X193913Y695913D01*
X193807Y696006D01*
X193699Y696096D01*
X193588Y696184D01*
X193475Y696268D01*
X193359Y696349D01*
X193241Y696427D01*
X193121Y696502D01*
X192999Y696573D01*
X192875Y696641D01*
X192749Y696705D01*
X192622Y696766D01*
X192493Y696823D01*
X192362Y696876D01*
X192230Y696926D01*
X192097Y696973D01*
X191962Y697015D01*
X191826Y697054D01*
X191689Y697089D01*
X191552Y697120D01*
X191413Y697147D01*
X191274Y697171D01*
X191134Y697190D01*
X190994Y697206D01*
X190853Y697218D01*
X190712Y697226D01*
X190571Y697230D01*
X190429Y697230D01*
X190288Y697226D01*
X190147Y697218D01*
X190006Y697206D01*
X189866Y697190D01*
X189726Y697171D01*
X189587Y697147D01*
X189448Y697120D01*
X189311Y697089D01*
X189174Y697054D01*
X189038Y697015D01*
X188903Y696973D01*
X188770Y696926D01*
X188638Y696876D01*
X188507Y696823D01*
X188378Y696766D01*
X188251Y696705D01*
X188125Y696641D01*
X188001Y696573D01*
X187879Y696502D01*
X187759Y696427D01*
X187641Y696349D01*
X187525Y696268D01*
X187412Y696184D01*
X187301Y696096D01*
X187193Y696006D01*
X187087Y695913D01*
X186984Y695816D01*
X186883Y695717D01*
X186785Y695615D01*
X186690Y695511D01*
X186598Y695403D01*
X186509Y695294D01*
X186424Y695181D01*
X186341Y695067D01*
X186261Y694950D01*
X186185Y694831D01*
X186112Y694710D01*
X186043Y694587D01*
X185977Y694463D01*
X185914Y694336D01*
X185855Y694208D01*
X185800Y694078D01*
X185748Y693946D01*
X185700Y693814D01*
X185656Y693679D01*
X185615Y693544D01*
X185578Y693408D01*
X185545Y693271D01*
X185516Y693132D01*
X185491Y692993D01*
X185469Y692854D01*
X185451Y692714D01*
X185438Y692573D01*
X185428Y692432D01*
X185422Y692291D01*
X185420Y692150D01*
D15*
X206502Y692150D02*
X206502Y781050D01*
D11*
X185801Y688975D02*
X185801Y677545D01*
X184531Y677545D02*
X187071Y677545D01*
X187071Y688975D02*
X184531Y688975D01*
X194273Y677545D02*
X196813Y677545D01*
X194273Y677545D02*
X194173Y677547D01*
X194074Y677553D01*
X193974Y677563D01*
X193876Y677576D01*
X193777Y677594D01*
X193680Y677615D01*
X193584Y677640D01*
X193488Y677669D01*
X193394Y677702D01*
X193301Y677738D01*
X193210Y677778D01*
X193120Y677822D01*
X193032Y677869D01*
X192946Y677919D01*
X192862Y677973D01*
X192780Y678030D01*
X192701Y678090D01*
X192623Y678154D01*
X192549Y678220D01*
X192477Y678289D01*
X192408Y678361D01*
X192342Y678435D01*
X192278Y678513D01*
X192218Y678592D01*
X192161Y678674D01*
X192107Y678758D01*
X192057Y678844D01*
X192010Y678932D01*
X191966Y679022D01*
X191926Y679113D01*
X191890Y679206D01*
X191857Y679300D01*
X191828Y679396D01*
X191803Y679492D01*
X191782Y679589D01*
X191764Y679688D01*
X191751Y679786D01*
X191741Y679886D01*
X191735Y679985D01*
X191733Y680085D01*
X191733Y686435D01*
X191735Y686535D01*
X191741Y686634D01*
X191751Y686734D01*
X191764Y686832D01*
X191782Y686931D01*
X191803Y687028D01*
X191828Y687124D01*
X191857Y687220D01*
X191890Y687314D01*
X191926Y687407D01*
X191966Y687498D01*
X192010Y687588D01*
X192057Y687676D01*
X192107Y687762D01*
X192161Y687846D01*
X192218Y687928D01*
X192278Y688007D01*
X192342Y688085D01*
X192408Y688159D01*
X192477Y688231D01*
X192549Y688300D01*
X192623Y688366D01*
X192701Y688430D01*
X192780Y688490D01*
X192862Y688547D01*
X192946Y688601D01*
X193032Y688651D01*
X193120Y688698D01*
X193210Y688742D01*
X193301Y688782D01*
X193394Y688818D01*
X193488Y688851D01*
X193584Y688880D01*
X193680Y688905D01*
X193777Y688926D01*
X193876Y688944D01*
X193974Y688957D01*
X194074Y688967D01*
X194173Y688973D01*
X194273Y688975D01*
X196813Y688975D01*
X204788Y688976D02*
X204892Y688974D01*
X204997Y688968D01*
X205101Y688959D01*
X205204Y688946D01*
X205307Y688928D01*
X205409Y688908D01*
X205511Y688883D01*
X205611Y688855D01*
X205711Y688823D01*
X205809Y688787D01*
X205906Y688748D01*
X206001Y688706D01*
X206095Y688660D01*
X206187Y688610D01*
X206277Y688558D01*
X206365Y688502D01*
X206451Y688442D01*
X206535Y688380D01*
X206616Y688315D01*
X206695Y688247D01*
X206772Y688175D01*
X206845Y688102D01*
X206917Y688025D01*
X206985Y687946D01*
X207050Y687865D01*
X207112Y687781D01*
X207172Y687695D01*
X207228Y687607D01*
X207280Y687517D01*
X207330Y687425D01*
X207376Y687331D01*
X207418Y687236D01*
X207457Y687139D01*
X207493Y687041D01*
X207525Y686941D01*
X207553Y686841D01*
X207578Y686739D01*
X207598Y686637D01*
X207616Y686534D01*
X207629Y686431D01*
X207638Y686327D01*
X207644Y686222D01*
X207646Y686118D01*
X204788Y688975D02*
X204670Y688973D01*
X204551Y688967D01*
X204433Y688958D01*
X204316Y688945D01*
X204199Y688927D01*
X204082Y688907D01*
X203966Y688882D01*
X203851Y688854D01*
X203738Y688821D01*
X203625Y688786D01*
X203513Y688746D01*
X203403Y688704D01*
X203294Y688657D01*
X203186Y688607D01*
X203081Y688554D01*
X202977Y688497D01*
X202875Y688437D01*
X202775Y688374D01*
X202677Y688307D01*
X202581Y688238D01*
X202488Y688165D01*
X202397Y688089D01*
X202308Y688011D01*
X202222Y687929D01*
X202139Y687845D01*
X202058Y687759D01*
X201981Y687669D01*
X201906Y687578D01*
X201834Y687484D01*
X201765Y687387D01*
X201700Y687289D01*
X201637Y687188D01*
X201578Y687085D01*
X201522Y686981D01*
X201470Y686875D01*
X201421Y686767D01*
X201376Y686658D01*
X201334Y686547D01*
X201296Y686435D01*
X206693Y683896D02*
X206769Y683971D01*
X206844Y684050D01*
X206915Y684131D01*
X206984Y684215D01*
X207049Y684301D01*
X207111Y684389D01*
X207171Y684479D01*
X207227Y684571D01*
X207280Y684666D01*
X207329Y684762D01*
X207375Y684860D01*
X207418Y684959D01*
X207457Y685060D01*
X207492Y685162D01*
X207524Y685265D01*
X207552Y685369D01*
X207577Y685474D01*
X207598Y685581D01*
X207615Y685687D01*
X207628Y685794D01*
X207637Y685902D01*
X207643Y686010D01*
X207645Y686118D01*
X206693Y683895D02*
X201295Y677545D01*
X207645Y677545D01*
D10*
X76500Y558800D02*
X76400Y558800D01*
D11*
X71500Y573000D02*
X55500Y573000D01*
X55500Y544600D02*
X71500Y544600D01*
D12*
X57000Y546100D02*
X57000Y571600D01*
X70100Y571600D01*
X70100Y546100D01*
X57000Y546100D01*
D13*
X37592Y535206D02*
X25908Y535206D01*
X37592Y533908D02*
X37592Y536504D01*
X25908Y536504D02*
X25908Y533908D01*
X37592Y543668D02*
X37592Y546264D01*
X37592Y543668D02*
X37590Y543569D01*
X37584Y543469D01*
X37575Y543370D01*
X37562Y543272D01*
X37545Y543174D01*
X37524Y543076D01*
X37499Y542980D01*
X37471Y542885D01*
X37439Y542791D01*
X37404Y542698D01*
X37365Y542606D01*
X37322Y542516D01*
X37277Y542428D01*
X37227Y542341D01*
X37175Y542257D01*
X37119Y542174D01*
X37061Y542094D01*
X36999Y542016D01*
X36934Y541941D01*
X36866Y541868D01*
X36796Y541798D01*
X36723Y541730D01*
X36648Y541665D01*
X36570Y541603D01*
X36490Y541545D01*
X36407Y541489D01*
X36323Y541437D01*
X36236Y541387D01*
X36148Y541342D01*
X36058Y541299D01*
X35966Y541260D01*
X35873Y541225D01*
X35779Y541193D01*
X35684Y541165D01*
X35588Y541140D01*
X35490Y541119D01*
X35392Y541102D01*
X35294Y541089D01*
X35195Y541080D01*
X35095Y541074D01*
X34996Y541072D01*
X34996Y541071D02*
X28504Y541071D01*
X28405Y541073D01*
X28305Y541079D01*
X28206Y541088D01*
X28108Y541101D01*
X28010Y541119D01*
X27912Y541139D01*
X27816Y541164D01*
X27720Y541192D01*
X27626Y541224D01*
X27533Y541259D01*
X27442Y541298D01*
X27352Y541341D01*
X27263Y541386D01*
X27177Y541436D01*
X27092Y541488D01*
X27010Y541544D01*
X26930Y541603D01*
X26852Y541664D01*
X26776Y541729D01*
X26703Y541797D01*
X26633Y541867D01*
X26565Y541940D01*
X26500Y542016D01*
X26439Y542094D01*
X26380Y542174D01*
X26324Y542256D01*
X26272Y542341D01*
X26223Y542427D01*
X26177Y542516D01*
X26134Y542606D01*
X26095Y542697D01*
X26060Y542790D01*
X26028Y542884D01*
X26000Y542980D01*
X25975Y543076D01*
X25955Y543174D01*
X25937Y543272D01*
X25924Y543370D01*
X25915Y543469D01*
X25909Y543568D01*
X25907Y543668D01*
X25908Y543668D02*
X25908Y546264D01*
X37592Y550630D02*
X37592Y553875D01*
X37590Y553988D01*
X37584Y554101D01*
X37574Y554214D01*
X37560Y554327D01*
X37543Y554439D01*
X37521Y554550D01*
X37496Y554660D01*
X37466Y554770D01*
X37433Y554878D01*
X37396Y554985D01*
X37356Y555091D01*
X37311Y555195D01*
X37263Y555298D01*
X37212Y555399D01*
X37157Y555498D01*
X37099Y555595D01*
X37037Y555690D01*
X36972Y555783D01*
X36904Y555873D01*
X36833Y555961D01*
X36758Y556047D01*
X36681Y556130D01*
X36601Y556210D01*
X36518Y556287D01*
X36432Y556362D01*
X36344Y556433D01*
X36254Y556501D01*
X36161Y556566D01*
X36066Y556628D01*
X35969Y556686D01*
X35870Y556741D01*
X35769Y556792D01*
X35666Y556840D01*
X35562Y556885D01*
X35456Y556925D01*
X35349Y556962D01*
X35241Y556995D01*
X35131Y557025D01*
X35021Y557050D01*
X34910Y557072D01*
X34798Y557089D01*
X34685Y557103D01*
X34572Y557113D01*
X34459Y557119D01*
X34346Y557121D01*
X34233Y557119D01*
X34120Y557113D01*
X34007Y557103D01*
X33894Y557089D01*
X33782Y557072D01*
X33671Y557050D01*
X33561Y557025D01*
X33451Y556995D01*
X33343Y556962D01*
X33236Y556925D01*
X33130Y556885D01*
X33026Y556840D01*
X32923Y556792D01*
X32822Y556741D01*
X32723Y556686D01*
X32626Y556628D01*
X32531Y556566D01*
X32438Y556501D01*
X32348Y556433D01*
X32260Y556362D01*
X32174Y556287D01*
X32091Y556210D01*
X32011Y556130D01*
X31934Y556047D01*
X31859Y555961D01*
X31788Y555873D01*
X31720Y555783D01*
X31655Y555690D01*
X31593Y555595D01*
X31535Y555498D01*
X31480Y555399D01*
X31429Y555298D01*
X31381Y555195D01*
X31336Y555091D01*
X31296Y554985D01*
X31259Y554878D01*
X31226Y554770D01*
X31196Y554660D01*
X31171Y554550D01*
X31149Y554439D01*
X31132Y554327D01*
X31118Y554214D01*
X31108Y554101D01*
X31102Y553988D01*
X31100Y553875D01*
X25908Y554524D02*
X25908Y550630D01*
X25908Y554524D02*
X25910Y554625D01*
X25916Y554725D01*
X25926Y554825D01*
X25939Y554925D01*
X25957Y555024D01*
X25978Y555123D01*
X26003Y555220D01*
X26032Y555317D01*
X26065Y555412D01*
X26101Y555506D01*
X26141Y555598D01*
X26184Y555689D01*
X26231Y555778D01*
X26281Y555865D01*
X26335Y555951D01*
X26392Y556034D01*
X26452Y556114D01*
X26515Y556193D01*
X26582Y556269D01*
X26651Y556342D01*
X26723Y556412D01*
X26797Y556480D01*
X26874Y556545D01*
X26954Y556606D01*
X27036Y556665D01*
X27120Y556720D01*
X27206Y556772D01*
X27294Y556821D01*
X27384Y556866D01*
X27476Y556908D01*
X27569Y556946D01*
X27664Y556980D01*
X27759Y557011D01*
X27856Y557038D01*
X27954Y557061D01*
X28053Y557081D01*
X28153Y557096D01*
X28253Y557108D01*
X28353Y557116D01*
X28454Y557120D01*
X28554Y557120D01*
X28655Y557116D01*
X28755Y557108D01*
X28855Y557096D01*
X28955Y557081D01*
X29054Y557061D01*
X29152Y557038D01*
X29249Y557011D01*
X29344Y556980D01*
X29439Y556946D01*
X29532Y556908D01*
X29624Y556866D01*
X29714Y556821D01*
X29802Y556772D01*
X29888Y556720D01*
X29972Y556665D01*
X30054Y556606D01*
X30134Y556545D01*
X30211Y556480D01*
X30285Y556412D01*
X30357Y556342D01*
X30426Y556269D01*
X30493Y556193D01*
X30556Y556114D01*
X30616Y556034D01*
X30673Y555951D01*
X30727Y555865D01*
X30777Y555778D01*
X30824Y555689D01*
X30867Y555598D01*
X30907Y555506D01*
X30943Y555412D01*
X30976Y555317D01*
X31005Y555220D01*
X31030Y555123D01*
X31051Y555024D01*
X31069Y554925D01*
X31082Y554825D01*
X31092Y554725D01*
X31098Y554625D01*
X31100Y554524D01*
X31101Y554524D02*
X31101Y551928D01*
D10*
X292100Y762200D02*
X292100Y762300D01*
D11*
X277900Y757300D02*
X277900Y741300D01*
X306300Y741300D02*
X306300Y757300D01*
D12*
X304800Y742800D02*
X279300Y742800D01*
X279300Y755900D01*
X304800Y755900D01*
X304800Y742800D01*
D13*
X295077Y723392D02*
X295077Y711708D01*
X293779Y711708D02*
X296376Y711708D01*
X296376Y723392D02*
X293779Y723392D01*
X303539Y711708D02*
X306136Y711708D01*
X303539Y711708D02*
X303440Y711710D01*
X303340Y711716D01*
X303241Y711725D01*
X303143Y711738D01*
X303045Y711755D01*
X302947Y711776D01*
X302851Y711801D01*
X302756Y711829D01*
X302662Y711861D01*
X302569Y711896D01*
X302477Y711935D01*
X302387Y711978D01*
X302299Y712023D01*
X302212Y712073D01*
X302128Y712125D01*
X302045Y712181D01*
X301965Y712239D01*
X301887Y712301D01*
X301812Y712366D01*
X301739Y712434D01*
X301669Y712504D01*
X301601Y712577D01*
X301536Y712652D01*
X301474Y712730D01*
X301416Y712810D01*
X301360Y712893D01*
X301308Y712977D01*
X301258Y713064D01*
X301213Y713152D01*
X301170Y713242D01*
X301131Y713334D01*
X301096Y713427D01*
X301064Y713521D01*
X301036Y713616D01*
X301011Y713712D01*
X300990Y713810D01*
X300973Y713908D01*
X300960Y714006D01*
X300951Y714105D01*
X300945Y714205D01*
X300943Y714304D01*
X300943Y720796D01*
X300945Y720895D01*
X300951Y720995D01*
X300960Y721094D01*
X300973Y721192D01*
X300990Y721290D01*
X301011Y721388D01*
X301036Y721484D01*
X301064Y721579D01*
X301096Y721673D01*
X301131Y721766D01*
X301170Y721858D01*
X301213Y721948D01*
X301258Y722036D01*
X301308Y722123D01*
X301360Y722207D01*
X301416Y722290D01*
X301474Y722370D01*
X301536Y722448D01*
X301601Y722523D01*
X301669Y722596D01*
X301739Y722666D01*
X301812Y722734D01*
X301887Y722799D01*
X301965Y722861D01*
X302045Y722919D01*
X302128Y722975D01*
X302212Y723027D01*
X302299Y723077D01*
X302387Y723122D01*
X302477Y723165D01*
X302569Y723204D01*
X302661Y723239D01*
X302756Y723271D01*
X302851Y723299D01*
X302947Y723324D01*
X303045Y723345D01*
X303143Y723362D01*
X303241Y723375D01*
X303340Y723384D01*
X303440Y723390D01*
X303539Y723392D01*
X306136Y723392D01*
X313097Y723392D02*
X310501Y714304D01*
X316992Y714304D01*
X315045Y716901D02*
X315045Y711708D01*
D10*
X76500Y647700D02*
X76400Y647700D01*
D11*
X71500Y661900D02*
X55500Y661900D01*
X55500Y633500D02*
X71500Y633500D01*
D12*
X57000Y635000D02*
X57000Y660500D01*
X70100Y660500D01*
X70100Y635000D01*
X57000Y635000D01*
D13*
X37592Y624106D02*
X25908Y624106D01*
X37592Y622808D02*
X37592Y625404D01*
X25908Y625404D02*
X25908Y622808D01*
X37592Y632568D02*
X37592Y635164D01*
X37592Y632568D02*
X37590Y632469D01*
X37584Y632369D01*
X37575Y632270D01*
X37562Y632172D01*
X37545Y632074D01*
X37524Y631976D01*
X37499Y631880D01*
X37471Y631785D01*
X37439Y631691D01*
X37404Y631598D01*
X37365Y631506D01*
X37322Y631416D01*
X37277Y631328D01*
X37227Y631241D01*
X37175Y631157D01*
X37119Y631074D01*
X37061Y630994D01*
X36999Y630916D01*
X36934Y630841D01*
X36866Y630768D01*
X36796Y630698D01*
X36723Y630630D01*
X36648Y630565D01*
X36570Y630503D01*
X36490Y630445D01*
X36407Y630389D01*
X36323Y630337D01*
X36236Y630287D01*
X36148Y630242D01*
X36058Y630199D01*
X35966Y630160D01*
X35873Y630125D01*
X35779Y630093D01*
X35684Y630065D01*
X35588Y630040D01*
X35490Y630019D01*
X35392Y630002D01*
X35294Y629989D01*
X35195Y629980D01*
X35095Y629974D01*
X34996Y629972D01*
X34996Y629971D02*
X28504Y629971D01*
X28405Y629973D01*
X28305Y629979D01*
X28206Y629988D01*
X28108Y630001D01*
X28010Y630019D01*
X27912Y630039D01*
X27816Y630064D01*
X27720Y630092D01*
X27626Y630124D01*
X27533Y630159D01*
X27442Y630198D01*
X27352Y630241D01*
X27263Y630286D01*
X27177Y630336D01*
X27092Y630388D01*
X27010Y630444D01*
X26930Y630503D01*
X26852Y630564D01*
X26776Y630629D01*
X26703Y630697D01*
X26633Y630767D01*
X26565Y630840D01*
X26500Y630916D01*
X26439Y630994D01*
X26380Y631074D01*
X26324Y631156D01*
X26272Y631241D01*
X26223Y631327D01*
X26177Y631416D01*
X26134Y631506D01*
X26095Y631597D01*
X26060Y631690D01*
X26028Y631784D01*
X26000Y631880D01*
X25975Y631976D01*
X25955Y632074D01*
X25937Y632172D01*
X25924Y632270D01*
X25915Y632369D01*
X25909Y632468D01*
X25907Y632568D01*
X25908Y632568D02*
X25908Y635164D01*
X37592Y639530D02*
X37592Y643424D01*
X37590Y643523D01*
X37584Y643623D01*
X37575Y643722D01*
X37562Y643820D01*
X37545Y643918D01*
X37524Y644016D01*
X37499Y644112D01*
X37471Y644207D01*
X37439Y644301D01*
X37404Y644394D01*
X37365Y644486D01*
X37322Y644576D01*
X37277Y644664D01*
X37227Y644751D01*
X37175Y644835D01*
X37119Y644918D01*
X37061Y644998D01*
X36999Y645076D01*
X36934Y645151D01*
X36866Y645224D01*
X36796Y645294D01*
X36723Y645362D01*
X36648Y645427D01*
X36570Y645489D01*
X36490Y645547D01*
X36407Y645603D01*
X36323Y645655D01*
X36236Y645705D01*
X36148Y645750D01*
X36058Y645793D01*
X35966Y645832D01*
X35873Y645867D01*
X35779Y645899D01*
X35684Y645927D01*
X35588Y645952D01*
X35490Y645973D01*
X35392Y645990D01*
X35294Y646003D01*
X35195Y646012D01*
X35095Y646018D01*
X34996Y646020D01*
X34996Y646021D02*
X33697Y646021D01*
X33697Y646020D02*
X33598Y646018D01*
X33498Y646012D01*
X33399Y646003D01*
X33301Y645990D01*
X33203Y645973D01*
X33105Y645952D01*
X33009Y645927D01*
X32914Y645899D01*
X32820Y645867D01*
X32727Y645832D01*
X32635Y645793D01*
X32545Y645750D01*
X32457Y645705D01*
X32370Y645655D01*
X32286Y645603D01*
X32203Y645547D01*
X32123Y645489D01*
X32045Y645427D01*
X31970Y645362D01*
X31897Y645294D01*
X31827Y645224D01*
X31759Y645151D01*
X31694Y645076D01*
X31632Y644998D01*
X31574Y644918D01*
X31518Y644835D01*
X31466Y644751D01*
X31416Y644664D01*
X31371Y644576D01*
X31328Y644486D01*
X31289Y644394D01*
X31254Y644301D01*
X31222Y644207D01*
X31194Y644112D01*
X31169Y644016D01*
X31148Y643918D01*
X31131Y643820D01*
X31118Y643722D01*
X31109Y643623D01*
X31103Y643523D01*
X31101Y643424D01*
X31101Y639530D01*
X25908Y639530D01*
X25908Y646021D01*
D10*
X228600Y609400D02*
X228600Y609300D01*
D11*
X242800Y614300D02*
X242800Y630300D01*
X214400Y630300D02*
X214400Y614300D01*
D12*
X215900Y628800D02*
X241400Y628800D01*
X241400Y615700D01*
X215900Y615700D01*
X215900Y628800D01*
D13*
X205006Y648208D02*
X205006Y659892D01*
X203708Y648208D02*
X206304Y648208D01*
X206304Y659892D02*
X203708Y659892D01*
X213468Y648208D02*
X216064Y648208D01*
X213468Y648208D02*
X213369Y648210D01*
X213269Y648216D01*
X213170Y648225D01*
X213072Y648238D01*
X212974Y648255D01*
X212876Y648276D01*
X212780Y648301D01*
X212685Y648329D01*
X212591Y648361D01*
X212498Y648396D01*
X212406Y648435D01*
X212316Y648478D01*
X212228Y648523D01*
X212141Y648573D01*
X212057Y648625D01*
X211974Y648681D01*
X211894Y648739D01*
X211816Y648801D01*
X211741Y648866D01*
X211668Y648934D01*
X211598Y649004D01*
X211530Y649077D01*
X211465Y649152D01*
X211403Y649230D01*
X211345Y649310D01*
X211289Y649393D01*
X211237Y649477D01*
X211187Y649564D01*
X211142Y649652D01*
X211099Y649742D01*
X211060Y649834D01*
X211025Y649927D01*
X210993Y650021D01*
X210965Y650116D01*
X210940Y650212D01*
X210919Y650310D01*
X210902Y650408D01*
X210889Y650506D01*
X210880Y650605D01*
X210874Y650705D01*
X210872Y650804D01*
X210871Y650804D02*
X210871Y657296D01*
X210872Y657296D02*
X210874Y657395D01*
X210880Y657495D01*
X210889Y657594D01*
X210902Y657692D01*
X210919Y657790D01*
X210940Y657888D01*
X210965Y657984D01*
X210993Y658079D01*
X211025Y658173D01*
X211060Y658266D01*
X211099Y658358D01*
X211142Y658448D01*
X211187Y658536D01*
X211237Y658623D01*
X211289Y658707D01*
X211345Y658790D01*
X211403Y658870D01*
X211465Y658948D01*
X211530Y659023D01*
X211598Y659096D01*
X211668Y659166D01*
X211741Y659234D01*
X211816Y659299D01*
X211894Y659361D01*
X211974Y659419D01*
X212057Y659475D01*
X212141Y659527D01*
X212228Y659577D01*
X212316Y659622D01*
X212406Y659665D01*
X212498Y659704D01*
X212590Y659739D01*
X212685Y659771D01*
X212780Y659799D01*
X212876Y659824D01*
X212974Y659845D01*
X213072Y659862D01*
X213170Y659875D01*
X213269Y659884D01*
X213369Y659890D01*
X213468Y659892D01*
X216064Y659892D01*
X220430Y654699D02*
X224324Y654699D01*
X224423Y654697D01*
X224523Y654691D01*
X224622Y654682D01*
X224720Y654669D01*
X224818Y654652D01*
X224916Y654631D01*
X225012Y654606D01*
X225107Y654578D01*
X225201Y654546D01*
X225294Y654511D01*
X225386Y654472D01*
X225476Y654429D01*
X225564Y654384D01*
X225651Y654334D01*
X225735Y654282D01*
X225818Y654226D01*
X225898Y654168D01*
X225976Y654106D01*
X226051Y654041D01*
X226124Y653973D01*
X226194Y653903D01*
X226262Y653830D01*
X226327Y653755D01*
X226389Y653677D01*
X226447Y653597D01*
X226503Y653514D01*
X226555Y653430D01*
X226605Y653343D01*
X226650Y653255D01*
X226693Y653165D01*
X226732Y653073D01*
X226767Y652980D01*
X226799Y652886D01*
X226827Y652791D01*
X226852Y652695D01*
X226873Y652597D01*
X226890Y652499D01*
X226903Y652401D01*
X226912Y652302D01*
X226918Y652202D01*
X226920Y652103D01*
X226921Y652103D02*
X226921Y651454D01*
X226919Y651341D01*
X226913Y651228D01*
X226903Y651115D01*
X226889Y651002D01*
X226872Y650890D01*
X226850Y650779D01*
X226825Y650669D01*
X226795Y650559D01*
X226762Y650451D01*
X226725Y650344D01*
X226685Y650238D01*
X226640Y650134D01*
X226592Y650031D01*
X226541Y649930D01*
X226486Y649831D01*
X226428Y649734D01*
X226366Y649639D01*
X226301Y649546D01*
X226233Y649456D01*
X226162Y649368D01*
X226087Y649282D01*
X226010Y649199D01*
X225930Y649119D01*
X225847Y649042D01*
X225761Y648967D01*
X225673Y648896D01*
X225583Y648828D01*
X225490Y648763D01*
X225395Y648701D01*
X225298Y648643D01*
X225199Y648588D01*
X225098Y648537D01*
X224995Y648489D01*
X224891Y648444D01*
X224785Y648404D01*
X224678Y648367D01*
X224570Y648334D01*
X224460Y648304D01*
X224350Y648279D01*
X224239Y648257D01*
X224127Y648240D01*
X224014Y648226D01*
X223901Y648216D01*
X223788Y648210D01*
X223675Y648208D01*
X223562Y648210D01*
X223449Y648216D01*
X223336Y648226D01*
X223223Y648240D01*
X223111Y648257D01*
X223000Y648279D01*
X222890Y648304D01*
X222780Y648334D01*
X222672Y648367D01*
X222565Y648404D01*
X222459Y648444D01*
X222355Y648489D01*
X222252Y648537D01*
X222151Y648588D01*
X222052Y648643D01*
X221955Y648701D01*
X221860Y648763D01*
X221767Y648828D01*
X221677Y648896D01*
X221589Y648967D01*
X221503Y649042D01*
X221420Y649119D01*
X221340Y649199D01*
X221263Y649282D01*
X221188Y649368D01*
X221117Y649456D01*
X221049Y649546D01*
X220984Y649639D01*
X220922Y649734D01*
X220864Y649831D01*
X220809Y649930D01*
X220758Y650031D01*
X220710Y650134D01*
X220665Y650238D01*
X220625Y650344D01*
X220588Y650451D01*
X220555Y650559D01*
X220525Y650669D01*
X220500Y650779D01*
X220478Y650890D01*
X220461Y651002D01*
X220447Y651115D01*
X220437Y651228D01*
X220431Y651341D01*
X220429Y651454D01*
X220430Y651454D02*
X220430Y654699D01*
X220432Y654842D01*
X220438Y654985D01*
X220448Y655128D01*
X220462Y655270D01*
X220479Y655412D01*
X220501Y655554D01*
X220526Y655695D01*
X220556Y655835D01*
X220589Y655974D01*
X220626Y656112D01*
X220667Y656249D01*
X220711Y656385D01*
X220760Y656520D01*
X220812Y656653D01*
X220867Y656785D01*
X220927Y656915D01*
X220990Y657044D01*
X221056Y657171D01*
X221126Y657295D01*
X221199Y657418D01*
X221276Y657539D01*
X221356Y657658D01*
X221439Y657774D01*
X221525Y657889D01*
X221614Y658000D01*
X221707Y658110D01*
X221802Y658216D01*
X221901Y658320D01*
X222002Y658421D01*
X222106Y658520D01*
X222212Y658615D01*
X222322Y658708D01*
X222433Y658797D01*
X222548Y658883D01*
X222664Y658966D01*
X222783Y659046D01*
X222904Y659123D01*
X223026Y659196D01*
X223151Y659266D01*
X223278Y659332D01*
X223407Y659395D01*
X223537Y659455D01*
X223669Y659510D01*
X223802Y659562D01*
X223937Y659611D01*
X224073Y659655D01*
X224210Y659696D01*
X224348Y659733D01*
X224487Y659766D01*
X224627Y659796D01*
X224768Y659821D01*
X224910Y659843D01*
X225052Y659860D01*
X225194Y659874D01*
X225337Y659884D01*
X225480Y659890D01*
X225623Y659892D01*
D10*
X76500Y762000D02*
X76400Y762000D01*
D11*
X71500Y776200D02*
X55500Y776200D01*
X55500Y747800D02*
X71500Y747800D01*
D12*
X57000Y749300D02*
X57000Y774800D01*
X70100Y774800D01*
X70100Y749300D01*
X57000Y749300D01*
D13*
X37592Y738406D02*
X25908Y738406D01*
X37592Y737108D02*
X37592Y739704D01*
X25908Y739704D02*
X25908Y737108D01*
X37592Y746868D02*
X37592Y749464D01*
X37592Y746868D02*
X37590Y746769D01*
X37584Y746669D01*
X37575Y746570D01*
X37562Y746472D01*
X37545Y746374D01*
X37524Y746276D01*
X37499Y746180D01*
X37471Y746085D01*
X37439Y745991D01*
X37404Y745898D01*
X37365Y745806D01*
X37322Y745716D01*
X37277Y745628D01*
X37227Y745541D01*
X37175Y745457D01*
X37119Y745374D01*
X37061Y745294D01*
X36999Y745216D01*
X36934Y745141D01*
X36866Y745068D01*
X36796Y744998D01*
X36723Y744930D01*
X36648Y744865D01*
X36570Y744803D01*
X36490Y744745D01*
X36407Y744689D01*
X36323Y744637D01*
X36236Y744587D01*
X36148Y744542D01*
X36058Y744499D01*
X35966Y744460D01*
X35873Y744425D01*
X35779Y744393D01*
X35684Y744365D01*
X35588Y744340D01*
X35490Y744319D01*
X35392Y744302D01*
X35294Y744289D01*
X35195Y744280D01*
X35095Y744274D01*
X34996Y744272D01*
X34996Y744271D02*
X28504Y744271D01*
X28405Y744273D01*
X28305Y744279D01*
X28206Y744288D01*
X28108Y744301D01*
X28010Y744319D01*
X27912Y744339D01*
X27816Y744364D01*
X27720Y744392D01*
X27626Y744424D01*
X27533Y744459D01*
X27442Y744498D01*
X27352Y744541D01*
X27263Y744586D01*
X27177Y744636D01*
X27092Y744688D01*
X27010Y744744D01*
X26930Y744803D01*
X26852Y744864D01*
X26776Y744929D01*
X26703Y744997D01*
X26633Y745067D01*
X26565Y745140D01*
X26500Y745216D01*
X26439Y745294D01*
X26380Y745374D01*
X26324Y745456D01*
X26272Y745541D01*
X26223Y745627D01*
X26177Y745716D01*
X26134Y745806D01*
X26095Y745897D01*
X26060Y745990D01*
X26028Y746084D01*
X26000Y746180D01*
X25975Y746276D01*
X25955Y746374D01*
X25937Y746472D01*
X25924Y746570D01*
X25915Y746669D01*
X25909Y746768D01*
X25907Y746868D01*
X25908Y746868D02*
X25908Y749464D01*
X25908Y753830D02*
X27206Y753830D01*
X25908Y753830D02*
X25908Y760321D01*
X37592Y757075D01*
D16*
X285496Y346202D02*
X834898Y346202D01*
X285496Y346202D02*
X285496Y645922D01*
X834898Y645922D01*
X834898Y346202D01*
D11*
X752080Y514404D02*
X752080Y515744D01*
X752079Y515744D02*
X752081Y515815D01*
X752087Y515887D01*
X752096Y515957D01*
X752109Y516027D01*
X752126Y516097D01*
X752147Y516165D01*
X752171Y516232D01*
X752199Y516298D01*
X752230Y516362D01*
X752265Y516425D01*
X752303Y516485D01*
X752344Y516544D01*
X752388Y516600D01*
X752435Y516654D01*
X752484Y516705D01*
X752537Y516753D01*
X752592Y516799D01*
X752649Y516841D01*
X752709Y516881D01*
X752770Y516917D01*
X752834Y516950D01*
X752899Y516979D01*
X752965Y517005D01*
X753033Y517028D01*
X753102Y517047D01*
X753172Y517062D01*
X753242Y517073D01*
X753313Y517081D01*
X753384Y517085D01*
X753456Y517085D01*
X753527Y517081D01*
X753598Y517073D01*
X753668Y517062D01*
X753738Y517047D01*
X753807Y517028D01*
X753875Y517005D01*
X753941Y516979D01*
X754006Y516950D01*
X754070Y516917D01*
X754131Y516881D01*
X754191Y516841D01*
X754248Y516799D01*
X754303Y516753D01*
X754356Y516705D01*
X754405Y516654D01*
X754452Y516600D01*
X754496Y516544D01*
X754537Y516485D01*
X754575Y516425D01*
X754610Y516362D01*
X754641Y516298D01*
X754669Y516232D01*
X754693Y516165D01*
X754714Y516097D01*
X754731Y516027D01*
X754744Y515957D01*
X754753Y515887D01*
X754759Y515815D01*
X754761Y515744D01*
X754761Y514404D01*
X749935Y514404D01*
X749935Y515744D01*
X749937Y515809D01*
X749943Y515873D01*
X749953Y515937D01*
X749966Y516001D01*
X749984Y516063D01*
X750005Y516124D01*
X750029Y516184D01*
X750058Y516242D01*
X750090Y516299D01*
X750125Y516353D01*
X750163Y516405D01*
X750205Y516455D01*
X750249Y516502D01*
X750296Y516546D01*
X750346Y516588D01*
X750398Y516626D01*
X750452Y516661D01*
X750509Y516693D01*
X750567Y516722D01*
X750627Y516746D01*
X750688Y516767D01*
X750750Y516785D01*
X750814Y516798D01*
X750878Y516808D01*
X750942Y516814D01*
X751007Y516816D01*
X751072Y516814D01*
X751136Y516808D01*
X751200Y516798D01*
X751264Y516785D01*
X751326Y516767D01*
X751387Y516746D01*
X751447Y516722D01*
X751505Y516693D01*
X751562Y516661D01*
X751616Y516626D01*
X751668Y516588D01*
X751718Y516546D01*
X751765Y516502D01*
X751809Y516455D01*
X751851Y516405D01*
X751889Y516353D01*
X751924Y516299D01*
X751956Y516242D01*
X751985Y516184D01*
X752009Y516124D01*
X752030Y516063D01*
X752048Y516001D01*
X752061Y515937D01*
X752071Y515873D01*
X752077Y515809D01*
X752079Y515744D01*
X749935Y520535D02*
X754761Y520535D01*
X749935Y519195D02*
X749935Y521876D01*
X751007Y524315D02*
X749935Y525656D01*
X754761Y525656D01*
X754761Y526996D02*
X754761Y524315D01*
D16*
X266700Y450850D02*
X260350Y444500D01*
X266700Y463550D02*
X260350Y469900D01*
X266700Y476250D01*
X266700Y488950D02*
X260350Y495300D01*
X266700Y501650D01*
X266700Y514350D02*
X260350Y520700D01*
X266700Y527050D01*
X266700Y539750D02*
X260350Y546100D01*
X260350Y444500D02*
X222250Y444500D01*
X215900Y450850D01*
X215900Y463550D01*
X222250Y469900D01*
X215900Y476250D01*
X215900Y488950D01*
X222250Y495300D01*
X215900Y501650D01*
X215900Y514350D01*
X222250Y520700D01*
X215900Y527050D01*
X215900Y539750D01*
X222250Y546100D01*
X260350Y546100D01*
X266700Y539750D02*
X266700Y527050D01*
X266700Y514350D02*
X266700Y501650D01*
X266700Y488950D02*
X266700Y476250D01*
X266700Y463550D02*
X266700Y450850D01*
X269240Y450850D02*
X269240Y463550D01*
X266700Y450850D02*
X260350Y444500D01*
X222250Y444500D01*
X215900Y450850D01*
D11*
X211653Y446744D02*
X207899Y446744D01*
X211653Y446743D02*
X211718Y446741D01*
X211782Y446735D01*
X211846Y446725D01*
X211910Y446712D01*
X211972Y446694D01*
X212033Y446673D01*
X212093Y446649D01*
X212151Y446620D01*
X212208Y446588D01*
X212262Y446553D01*
X212314Y446515D01*
X212364Y446473D01*
X212411Y446429D01*
X212455Y446382D01*
X212497Y446332D01*
X212535Y446280D01*
X212570Y446226D01*
X212602Y446169D01*
X212631Y446111D01*
X212655Y446051D01*
X212676Y445990D01*
X212694Y445928D01*
X212707Y445864D01*
X212717Y445800D01*
X212723Y445736D01*
X212725Y445671D01*
X212725Y445135D01*
X208971Y449692D02*
X207899Y451032D01*
X212725Y451032D01*
X212725Y449692D02*
X212725Y452373D01*
M02*
