G04 EAGLE Gerber RS-274X export*
G75*
%MOMM*%
%FSLAX34Y34*%
%LPD*%
%INSoldermask Top*%
%IPPOS*%
%AMOC8*
5,1,8,0,0,1.08239X$1,22.5*%
G01*
%ADD10R,1.193200X0.893200*%
%ADD11R,2.235200X0.863600*%
%ADD12R,0.893200X1.193200*%
%ADD13C,3.060700*%
%ADD14C,2.082800*%
%ADD15C,0.959600*%


D10*
X76400Y447700D03*
X76400Y457200D03*
X76400Y466700D03*
X50500Y466700D03*
X50500Y447700D03*
D11*
X221234Y698500D03*
X159766Y698500D03*
X221234Y711200D03*
X221234Y723900D03*
X159766Y711200D03*
X159766Y723900D03*
X221234Y736600D03*
X159766Y736600D03*
X221234Y749300D03*
X221234Y762000D03*
X159766Y749300D03*
X159766Y762000D03*
X221234Y774700D03*
X159766Y774700D03*
D10*
X76400Y549300D03*
X76400Y558800D03*
X76400Y568300D03*
X50500Y568300D03*
X50500Y549300D03*
D12*
X301600Y762200D03*
X292100Y762200D03*
X282600Y762200D03*
X282600Y736300D03*
X301600Y736300D03*
D10*
X76400Y638200D03*
X76400Y647700D03*
X76400Y657200D03*
X50500Y657200D03*
X50500Y638200D03*
D12*
X219100Y609400D03*
X228600Y609400D03*
X238100Y609400D03*
X238100Y635300D03*
X219100Y635300D03*
D10*
X76400Y752500D03*
X76400Y762000D03*
X76400Y771500D03*
X50500Y771500D03*
X50500Y752500D03*
D13*
X304800Y431800D03*
X304800Y561340D03*
D14*
X254000Y457200D03*
X228600Y457200D03*
X254000Y482600D03*
X228600Y482600D03*
X254000Y508000D03*
X228600Y508000D03*
X254000Y533400D03*
X228600Y533400D03*
D15*
X76200Y536448D03*
X65532Y560832D03*
X205740Y774192D03*
X231648Y667512D03*
X211836Y647700D03*
X106680Y542544D03*
X86868Y601980D03*
X181356Y762000D03*
X286512Y780288D03*
X205740Y748284D03*
X65532Y467868D03*
X199644Y601980D03*
X152400Y457200D03*
X237744Y737616D03*
M02*
